<svg version="1.2" xmlns="http://www.w3.org/2000/svg" viewBox="1656.7 1051.0949931725079 91.1703686845699 203.534365043241" width="92" height="204">
	<style>
		.s0 { fill: #000000 } 
	</style>
	<g>
		<path id="arm_bone" class="s0" d="m1726.9 1051.8c-0.9 0.4-4.4 3.2-7.7 6.3-4.5 4-6.4 6.5-6.8 9-2.4 12.7-11.4 20.1-26.7 22.1-13.9 1.8-16.5 2.8-23 9l-6 5.7 0.7 15.3c0.3 8.4 1.5 20.5 2.6 26.8 3.9 23.7 3.6 43.9-1.1 72.6-2 12.4-2.1 13.3-0.5 16.6 2.4 5 9.4 8.1 18.7 8.2 5.9 0.1 7.2-0.2 8.1-1.8 1.2-2.1 1.1-0.5 3.2-36 0.9-14.8 1.9-28.7 2.2-31 1.8-12.3 5.5-19.8 20.1-41 6.7-9.8 7.5-14 3.6-20.1-3-4.9-16.5-16.1-24.8-20.7-2.7-1.5-4.5-2.8-4-2.8 1.9 0 9 4.6 17.8 11.4 8.1 6.4 14.7 14.3 14.7 17.7 0 4.1-2.7 9.7-8.5 17.8-6.1 8.4-6.4 9.2-5.3 11.8 0.7 1.6 1.1 8 1.1 15.3 0 16-2.3 25.3-10.3 41.5-5.4 11.1-5.9 12.8-6.9 22.3-1 9.5-1 10.6 0.9 14 3.7 7 5.1 8 14.5 10.7 10.6 3.1 17.7 2.8 19.7-0.8 2.8-5.4 3.8-12.7 3.8-29.5 0-14.3 0.4-18.8 2.1-25.5 4.1-16.2 6-28.5 7-47.2 1.6-29.6 3.4-43.2 7.9-57.9 5.6-18 5.2-25.2-1.7-34.5-3.8-4.9-10.7-7.3-15.4-5.3z"/>
	</g>
</svg>