<svg version="1.2" xmlns="http://www.w3.org/2000/svg" viewBox="1369.1164129536912 587.1611389268193 295.2413779733306 300.83886107318074" width="296" height="301">
	<style>
		.s0 { fill: #000000 } 
	</style>
	<g>
		<path id="collar_bone" class="s0" d="m1625 588.9c-3.6 1.9-7.9 6.9-21.2 24.6-4.1 5.5-12.2 14.8-17.9 20.6-9.7 9.8-52.8 50.8-64.2 60.9-2.7 2.4-12 12.8-20.5 23-21.3 25.5-46.3 52.1-54.7 58.3-4.1 3-10.3 6.4-15 8.1-7.6 2.8-8.8 2.9-25.5 3.1-19.8 0.1-21.3 0.5-29.3 7.8l-4.7 4.2-1.5 12.7c-3.1 26-2.8 26.6 20.5 35.8 8.2 3.3 8.8 3.8 21.9 17.2 7.8 8.1 15.6 15.1 18.5 16.7 5.8 3.3 15.5 6.1 21.3 6.1 3.9 0 4-0.1 7.4-7.1 4.7-9.8 7.8-11.4 20.1-10.5 10.1 0.8 13.7-0.4 16.3-5.4 2.1-4 2-4.5-2-8.9-4.5-5-6.5-10.8-6.5-19 0-12.2 4-22.6 18-47.2 17.9-31.4 30.4-47.8 61.4-80.7 22.7-24.1 44.1-42.2 68-57.3 20-12.6 26.1-17.3 27.7-21.2 5.1-11.9-5.9-32.5-21.3-40.3-7.6-3.8-11.7-4.2-16.8-1.5z"/>
	</g>
</svg>