<svg version="1.2" xmlns="http://www.w3.org/2000/svg" viewBox="1367.3947234444277 841.1607242198957 138.34354085537484 136.1392757801043" width="139" height="137">
	<style>
		.s0 { fill: #000000 } 
	</style>
	<g>
		<path id="collar_plate" class="s0" d="m1370.7 842.2c-2.7 2.1-3.8 14.1-3.1 35.2 0.3 10.5 1 21.6 1.6 24.6 1.4 7.5 9.7 23.7 17.1 33.5 8.9 11.7 24.3 28 29.8 31.6 2.7 1.7 9.9 4.7 16.1 6.6 10.7 3.3 12.1 3.5 26.3 3.6 11.9 0 17.2-0.4 25.5-2.2 10.2-2.1 21.1-6.5 21.7-8.7 0.7-2.1-7.6-12.9-13.2-17.3-7-5.6-22.3-22.7-25.2-28.4-1.4-2.7-2.6-7.7-3.3-14.2-0.8-6.7-1.9-11.2-3.3-13.7-2.1-3.6-2.5-3.8-7.1-3.8-6.6 0-16.1-2.6-22.2-6-2.9-1.7-10.8-8.8-18.6-16.9-13.3-13.5-13.9-14-22-17.1-4.5-1.8-10.4-4.3-13-5.6-5.6-2.8-5-2.7-7.1-1.2z"/>
	</g>
</svg>