<svg version="1.2" xmlns="http://www.w3.org/2000/svg" viewBox="1464.317788566901 875.0877206291407 246.68221143309893 216.58683558387702" width="247" height="217">
	<style>
		.s0 { fill: #000000 } 
	</style>
	<g>
		<path id="collar_arm" class="s0" d="m1476.8 878.7c-7 3.2-7.8 3.9-9.6 8.2-1.1 2.5-2.3 6-2.6 7.7-1.1 5 1.2 21.4 3.7 26.1 3 5.7 17.4 22 24.8 27.9 6.7 5.4 11.3 11.9 21.4 30.4 11.8 21.5 15.7 26.5 21.4 27.5 2.6 0.4 7.5-0.3 15.9-2.5 7.7-1.9 13.2-2.8 15-2.4 5.6 1.4 23.1 10.9 33.2 18.2 13.8 9.8 35.9 28.3 43.6 36.4 5 5.2 6.3 7.2 6.9 10.8 1.7 10.1 8.3 21.8 13.5 24 2.1 0.9 3.8 0.9 7 0l4.3-1.2-3.6-2.9c-3.8-3.1-5.8-8-5.6-13.4 0.1-1.9 0.5-1 1 2.5 1.2 6.7 3 9.6 7.4 11.7 2.9 1.4 4.5 1.5 11.6 0.5 11.3-1.6 17.4-5.1 21.6-12.2 2.9-4.8 3.3-6.3 3.3-12.7 0-12.9-2.1-15-29-29.8-11.8-6.5-39.5-25-60.2-40.3-8.6-6.3-30.7-25.1-48.6-41.1-8.3-7.4-21.9-25.6-35.2-47.1-9.1-14.6-16.8-24.4-21.2-26.6-2.4-1.3-22.3-3.5-29.8-3.3-1.4 0-6 1.6-10.2 3.6z"/>
	</g>
</svg>