<svg version="1.2" xmlns="http://www.w3.org/2000/svg" viewBox="2141.0713565636643 1953.205118090325 99.7592710598633 49.79488190967504" width="100" height="50">
	<style>
		.s0 { fill: #000000 } 
	</style>
	<g>
		<path id="toe_bone" class="s0" d="m2213.5 1955.4c-3.8 1.3-11.1 4.4-16.1 6.9-13.1 6.6-22.8 8.9-34.3 8l-9.1-0.6-5.4 3.7c-4.5 3.1-5.6 4.4-6.5 8.1-2.3 9.3-1 12.9 6.5 17.9 4.1 2.7 6.4 3.6 9.6 3.6 5.4 0 14.8-4.4 22.8-10.5 10.7-8.2 14.1-8.8 31.2-5.5 19.5 3.8 28 3.6 28.6-0.6 0.2-1.1-0.6-2.8-1.8-3.9-1.1-1-2-2.2-2-2.8 0-0.5-1.3-2.5-3-4.3-4-4.6-5.7-10.5-4.3-15.5 1-3.8 0.9-4-1.8-5.4-3.6-1.9-5.9-1.8-14.4 0.9z"/>
	</g>
</svg>