<svg version="1.2" xmlns="http://www.w3.org/2000/svg" viewBox="3197.5756030951306 1827.1 45.568274920345175 60.29239872553512" width="47" height="61">
	<style>
		.s0 { fill: #000000 } 
	</style>
	<g>
		<path id="toe_upper_bone" class="s0" d="m3234.5 1827.9c-1.7 0.4-6.5 3.1-10.5 6l-7.5 5.3-8.7-0.7c-8.2-0.7-8.7-0.6-9.8 1.5-1.3 2.4 0.5 6.1 3.8 7.9 1 0.5 3.1 2.8 4.6 5 2.3 3.3 3.1 6 4.2 14.4 2 15.2 3.2 17.5 10.8 19.6 5.4 1.4 11.4-0.2 16.5-4.6 5.9-5 6.5-8.3 3.4-19.6-2.1-7.5-2.4-10.4-1.9-15.7 1.9-17.9 1.9-18.2 0.5-19.1-0.8-0.5-1.6-0.8-1.9-0.8-0.3 0.1-1.9 0.4-3.5 0.8z"/>
	</g>
</svg>