<svg version="1.2" xmlns="http://www.w3.org/2000/svg" viewBox="1791.6000000000004 1263.5613665098872 144.39230769230744 82.14088571958382" width="145" height="83">
	<style>
		.s0 { fill: #000000 } 
	</style>
	<g>
		<path id="belly_rib" class="s0" d="m1932.1 1264.1c-5.8 2.2-18.1 12.8-39.6 33.9-12.6 12.4-25.4 24.3-28.3 26.4-10.9 7.9-28.5 9.8-44.1 4.7l-9-2.8-5.3 1.8c-2.9 1-7.3 1.8-9.7 1.9h-4.5l2.8 2.9c5.2 5.4 14.1 8.1 40.5 12.2 9.3 1.5 14.3 0.4 26.6-5.6 11.4-5.5 20.8-13.1 42.9-34.6 18.2-17.7 25.8-26.4 29.5-33.6 3.3-6.6 2.7-8.9-1.8-7.2z"/>
	</g>
</svg>