<svg version="1.2" xmlns="http://www.w3.org/2000/svg" viewBox="1582.1935720426845 1384.0217114246698 45.50683760683751 113.97828857533023" width="46" height="114">
	<style>
		.s0 { fill: #000000 } 
	</style>
	<g>
		<path id="claw" class="s0" d="m1600.1 1386.5c-6.8 5.8-10.3 12.1-13.8 25.3-3.1 11.4-3.5 14.4-4 29.7-1.2 38 7.5 56.4 26.7 56.5 7 0 11.7-1.3 15.5-4.5l3-2.4-7 0.1c-8.2 0.2-12.1-1.5-16.1-6.7-2.6-3.5-2.7-4-2.7-16.8-0.1-13.5 1.4-22.2 4.6-27.1 0.8-1.2 4.1-3.6 7.4-5.4 3.2-1.7 6.7-3.9 7.6-5 2.1-2.3 5.2-11.1 6.1-17.5 0.6-4.1 0.4-5.4-1.5-8.1-2.1-3.1-5.6-5.7-10.9-8.2-2.5-1.1-9-9.3-9-11.3 0-1.9-2.7-1.2-5.9 1.4z"/>
	</g>
</svg>