<svg version="1.2" xmlns="http://www.w3.org/2000/svg" viewBox="1650.3031642475428 1350.1944621453497 31.629108717274676 75.52095787184544" width="32" height="76">
	<style>
		.s0 { fill: #000000 } 
	</style>
	<g>
		<path id="finger_bone" class="s0" d="m1666.1 1352.4c-1.3 1.4-3.3 2.6-4.4 2.8-3.4 0.5-6 5.1-5.9 10.5 0.2 11.8-2 36.4-4 45.1-2.6 10.9-2.2 12.3 4.3 13.5 11.4 2 10.5 2.2 12.7-1.5 3-5 3.4-8.7 1.7-16.1-1.4-6.2-1.4-7.2 0.1-12.5 0.9-3.1 3.7-9.7 6.1-14.7 3.2-6.4 4.7-10.6 5.1-14.7 0.3-4.1 0.1-5.8-0.7-5.8-0.7 0-3.1-2-5.3-4.5-4.7-5.1-6.5-5.5-9.7-2.1z"/>
	</g>
</svg>