<svg version="1.2" xmlns="http://www.w3.org/2000/svg" viewBox="157.08482105227668 83.98939462903957 30.865425917496935 49.12138943677405" width="31" height="51">
	<style>
		.s0 { fill: #000000 } 
	</style>
	<g>
		<path id="jaw_part" class="s0" d="m176.2 86.7c-1.1 1.6-2 4.8-2.1 7.5-0.1 2.6-0.8 6-1.6 7.5-0.8 1.5-1.5 3.8-1.5 5 0 1.3-0.4 2.3-0.9 2.3-0.5 0-1.2 1.2-1.6 2.7-0.6 2.7-7.6 12-10.2 13.6-2 1.2-1.6 2.2 1.7 3.4 1.7 0.6 3 1.8 3 2.7 0 4.4 3.7 0.1 9-10.4 3-5.9 5.8-10.5 13.3-21.4 3.5-5 3.5-9.5 0.2-12.4-1.3-1.2-3.1-1.9-4-1.6-0.8 0.4-1.5 0.1-1.5-0.5 0-2-1.8-1.2-3.8 1.6z"/>
	</g>
</svg>