<svg version="1.2" xmlns="http://www.w3.org/2000/svg" viewBox="536.2518434228492 69.37719617660446 46.87592171142478 290.2192990441511" width="48" height="291">
	<style>
		.s0 { fill: #000000 } 
	</style>
	<g>
		<path id="spine" class="s0" d="m559 69.7c-0.8 0.3-2.5 1.7-3.8 3.2-2.1 2.3-2.3 3.3-1.8 9.6 0.3 3.8 0.8 10.3 1.1 14.4 0.3 4.1 0.9 9 1.5 10.9 0.5 1.9 0.7 3.8 0.5 4.2-0.3 0.4 0.4 7.9 1.5 16.6 1.1 8.7 2 20.7 2 26.7 0 6 0.5 11.7 1.1 12.8 0.6 1.3 0.7 2.5 0.1 3.2-0.5 0.7-1.2 15.1-1.5 32.2-0.6 30.7-2 54.1-3.7 64.2-0.5 3.1-2.3 7.3-4.4 10.5-4.9 7.3-5.8 16.6-2.6 25 2.6 7.1 2.1 10-1.9 9.2-5-1-5.9 1-6 14.7 0 6.7-0.3 12.4-0.6 12.7-0.3 0.3-0.5-1.6-0.5-4.3 0-6.5-1.2-4.9-2.1 2.8-0.4 3.4-1.1 7.3-1.4 8.7-0.5 1.9-0.3 1.7 1.1-0.8 0.9-1.8 1.9-3 2.2-2.8 0.3 0.3-0.1 1.3-0.8 2.1-1 1.2-1 2.1-0.1 4.2 1.1 2.3 1.3 2.4 2.9 1.1 2.8-2.5 13.6 0.7 18.7 5.5 2.9 2.8 4.5 3.6 6 3.2 1.1-0.4 4.1-0.9 6.8-1.2 2.6-0.3 4.7-0.6 4.7-0.7 0 0-1-2.6-2.1-5.6-2.8-7.2-3.7-20.7-1.6-23.4 1.3-1.8 1.2-2.3-0.4-5.3-1.7-3.1-1.8-3.3-0.1-3.4 1.1-0.1 0.8-0.4-0.8-0.9-1.4-0.4-2-0.8-1.3-0.9 0.9-0.1 0.8-0.8-0.3-2.9-2.1-4-1.7-7.1 1.3-11.1 4.2-5.4 4.4-14.5 0.7-25l-2.8-7.9 1.2-14.4c1.1-14 4.5-43.3 5.6-48.6 0.6-2.6 2.7-25.8 4.6-49.7 0.6-6.6 1-20.8 1.1-31.5 0.1-19.5 0.1-19.5-3.1-28.5-4.5-12.7-4.4-12.4-2.8-14.3 1.7-2 2.1-8.8 0.6-11.5-0.7-1.4-1.9-1.8-5.2-1.6-2.3 0.2-4.8-0.1-5.5-0.5-1.7-1.1-6.3-1.6-8.1-0.9z"/>
	</g>
</svg>