<svg version="1.2" xmlns="http://www.w3.org/2000/svg" viewBox="1891.2639508420575 417.9941469006558 94.03604915794267 42.50585309934422" width="95" height="44">
	<style>
		.s0 { fill: #000000 } 
	</style>
	<g>
		<path id="tail_bone" class="s0" d="m1913.6 419.5c-1.1 0.8-4 1.5-6.4 1.5-3.4 0-4.8 0.5-6.3 2.4-1.2 1.5-3.4 2.6-6 3-2.3 0.4-3.9 0.9-3.6 1.2 0.3 0.3 5.6 1 11.9 1.4 38.4 3 62.5 11.4 78 27.3l4.1 4.2-2.4-4c-3.5-6.1-9.5-14-13.1-17.4-4-3.8-19-11.8-27.8-14.9-4.8-1.7-25.2-6.4-26.4-6.2 0 0-1 0.7-2 1.5z"/>
	</g>
</svg>