<svg version="1.2" xmlns="http://www.w3.org/2000/svg" viewBox="281.5351303966689 190.38912152935822 53.87887523390481 35.11087847064178" width="55" height="36">
	<style>
		.s0 { fill: #000000 } 
	</style>
	<g>
		<path id="neck_vertabrae_2" class="s0" d="m327 191.7c-2.4 0.9-5.1 2.2-5.8 3-0.7 0.7-1.8 1.3-2.3 1.3-0.5 0-0.9 0.7-0.9 1.6 0 1.2-0.7 1.4-2.9 0.9-1.9-0.4-3.4-0.1-4.4 0.9-2.1 2.2-5.3 2-7.7-0.4-1.1-1.1-2.6-2-3.2-2-0.7 0-2.1-0.7-3.2-1.5-1.6-1.2-2.2-1.2-4.2 0.2-1.3 0.8-3 1.3-3.8 1-0.9-0.4-1.6 0.3-2 1.8-0.3 1.3-1.5 2.7-2.6 3-1.3 0.4-2 1.5-2 3 0 4.3 1 5.5 4.7 5.5 3.9 0 7.3 1.5 7.3 3.2 0 0.6-0.8 0.4-1.8-0.5-2.4-2.2-3.3-2.1-2.6 0 0.5 1.6 0.4 1.6-0.9 0-1-1.2-2.5-1.7-4.2-1.5-2.5 0.3-2.7 0.7-2.9 5.5-0.4 6.7 1 8.1 5.5 5.9 4-2 5-2 2.4 0-1.2 1-1.4 1.5-0.5 1.2 0.8-0.2 2.3-2.1 3.3-4.1 0.9-2 2.3-3.7 3-3.8 0.6 0 2.2-0.2 3.4-0.5 2.6-0.4 5.8 2.5 7.9 7.1l1.3 3 0.1-2.7c0-1.8-1.2-3.9-3.5-6.2-3.4-3.4-4.8-5.8-2.2-3.9 0.6 0.5 2.2 1 3.5 1.1 2.1 0.1 2.2-0.1 1-1.6-0.7-0.9 0.2-0.4 2.1 1.1l3.4 2.8 2.1-2.4c2.6-3.2 7.1-5.4 13.5-6.8 3.5-0.7 5.4-1.8 6.6-3.6 1-1.4 1.2-2.2 0.5-1.8-0.9 0.5-1.1 0-0.6-2.1 0.7-3.2-0.5-8.6-2-9-0.5-0.1-2.9 0.5-5.4 1.3z"/>
	</g>
</svg>