<svg version="1.2" xmlns="http://www.w3.org/2000/svg" viewBox="203.58692130532128 18.222955675316932 43.61878206576853 29.34825864015189" width="45" height="30">
	<style>
		.s0 { fill: #000000 } 
	</style>
	<g>
		<path id="neck_vertabrae" class="s0" d="m231.14 20.04c-1.9 1.1-5.3 2.4-7.5 3-7.2 2-9.5 3.2-9.5 5.1 0 2.4 3.6 2.5 7 0.3l2.5-1.7-2 2.1c-3.4 3.4-10.09 3.3-14.39-0.4-2.4-2-3.2-2.3-3.6-1.2-0.7 1.8 4.8 12.49 6.2 12.09 0.6-0.2 0.8 0.6 0.6 2-0.3 1.4 0.2 2.9 1.1 3.6 1.3 1.1 2 1.1 3.99-0.3 2-1.2 2.7-1.3 3.3-0.3 1.5 2.3 4 3.7 5.6 3.1 0.9-0.3 1.3-1.2 1.1-1.9-0.3-0.7 0.6-2.5 2-4 1.5-1.6 2.5-3 2.3-3.1-0.2-0.2-2.1-0.8-4.3-1.3-3.6-0.8-3.7-0.9-0.9-1 1.7-0.1 4.1 0.6 5.3 1.5 1.2 0.8 2.7 1.2 3.2 0.9 0.6-0.4 3 0.5 5.5 1.9 5.3 3.1 6.4 3.3 4 0.6-2.9-3.3-7.6-5.7-13.5-6.99-3-0.7-4.9-1.5-4.3-1.7 2.5-0.9 12.3 2.79 16.8 6.29 2.6 1.9 5 3.3 5.3 2.9 1.1-1.1-1.3-3.9-4.9-5.7-2-1.1-2.7-1.79-1.6-1.79 2.4 0 2.2-4.9-0.4-11.1-2.4-5.5-3.5-5.8-8.9-2.9z"/>
	</g>
</svg>