<svg version="1.2" xmlns="http://www.w3.org/2000/svg" viewBox="156.92859960552272 157.08362244811946 82.99265665301166 270.36237293278714" width="84" height="271">
	<style>
		.s0 { fill: #000000 } 
	</style>
	<g>
		<path id="Spine" class="s0" d="m217.7 158.8c-1.9 2.1-2.3 9.2-1.2 24.4 1.1 15.9-1.9 58.2-5.9 82.3-0.8 4.9-2.4 14.4-3.5 21-1.1 6.6-2.7 16.3-3.6 21.5-1.8 10.9-3.7 19.4-6.8 29.8-2 6.9-2.2 7.2-4.7 6.7-3.1-0.6-4.3 0.1-6.2 4-3.9 7.5-8.5 33.7-5.7 31.9 0.8-0.5 0.9-0.3 0.5 0.5-0.5 0.7-1.1 1-1.4 0.7-0.3-0.3-1.1-0.1-1.9 0.5-0.9 0.8-1.7 0.8-2.5 0.1-0.7-0.6-3-1.3-5-1.7-3.4-0.6-3.8-0.5-3.8 1.3 0 1.1 1.3 3 2.9 4.1 3.6 2.6 4.8 6.1 2.1 6.1-6 0-10.5 5.7-13 16.5-1 4.1-1.3 7.2-0.9 6.9 0.5-0.3 0.9-1.4 0.9-2.4 0-1 0.5-2.2 1-2.5 0.7-0.4 0.9 0.2 0.5 1.8-0.6 2.4-0.5 2.5 4.3 2.5 2.7 0 6.7 0.3 9 0.7 3.5 0.6 4.3 1.1 4.8 3.3 0.9 3.8 5.2 9.2 6.8 8.6 2.3-0.9 7.5-12.6 8.3-18.9l0.7-6 0.7 4 0.6 4 0.2-4.1c0-2.2-0.4-4.5-1-5.1-2-2-0.2-4.3 3.3-4.3 4.4 0 5.9-1.1 6.7-5.1 0.6-2.7 0.3-3.8-1.2-5.2-1.1-0.9-2.4-1.7-2.9-1.7-1.7 0-0.7-5.2 2.1-10.3 2.8-4.9 5.7-15.4 4.7-16.5-0.3-0.2-0.8 1.4-1.2 3.7-0.4 2.2-1 4.1-1.5 4.1-1.2 0-1.1-0.2 0.5-5.2 0.8-2.4 1.6-5.4 1.9-6.8 0.4-2.3 0.4-2.3 0.6 0.5 0.5 6.2 2-0.8 2.1-9.5 0-4.7 0.5-10.1 1-12 0.5-1.9 2.7-10.5 4.9-19 2.2-8.5 5.9-22.3 8.1-30.5 2.3-8.3 5.7-21.3 7.6-29 1.8-7.7 4.6-18.5 6-24 3.5-13.1 4.4-33.4 1.9-43.7-0.9-3.7-1.4-7.2-0.9-7.9 0.4-0.8 0.3-0.9-0.5-0.5-0.9 0.6-1 0-0.5-2 0.5-1.9 0.4-2.5-0.4-2-0.8 0.5-1 0.2-0.6-0.8 0.3-0.9 0.1-1.6-0.6-1.6-0.6 0-0.8-0.5-0.5-1 0.3-0.6 0.1-1-0.5-1-0.6 0-1.7-1.5-2.5-3.3-1.4-3.4-4.6-6.7-8.2-8.6-2.9-1.5-3.7-1.4-5.6 0.7zm-28.9 189.2c-1.4 2.2-2.4 1.9-1.5-0.5 0.4-0.8 1.1-1.5 1.7-1.5 0.6 0 0.6 0.7-0.2 2zm-2.4 6.5c-0.4 0.8-0.8 1.5-1 1.5-0.2 0-0.4-0.7-0.4-1.5 0-0.8 0.4-1.5 1-1.5 0.5 0 0.7 0.7 0.4 1.5zm-2.2 5.7c-0.8 0.8-0.9 0.4-0.5-1.3 0.4-1.3 0.8-1.8 1.1-1 0.2 0.7-0.1 1.8-0.6 2.3zm17.7 13.2c-0.7 1.4-1.6 2.6-2 2.6-0.5 0 0-1.3 0.9-2.9 2-3.6 2.7-3.4 1.1 0.3zm-3.7 7.6c-0.2 2.2-0.7 4.2-1.1 4.4-0.8 0.6-0.5-6 0.4-7.4 1-1.6 1.1-1.2 0.7 3z"/>
	</g>
</svg>