<svg version="1.2" xmlns="http://www.w3.org/2000/svg" viewBox="599.2555555555557 100.2374011699455 53.2444444444443 270.2421618705643" width="54" height="271">
	<style>
		.s0 { fill: #000000 } 
	</style>
	<g>
		<path id="spine" class="s0" d="m632.5 101.5c-6.1 1.7-10.9 6.5-12.6 12.7-0.8 3.1-1 10.5-0.4 26.8 1.9 57.5 2 68.9 0.8 83.5-0.7 8.2-1.2 20.5-1.3 27.2 0 6.7-0.4 12.3-0.9 12.5-1.3 0.4-8.1 15.6-8.1 17.9 0 1.1-0.4 1.9-0.8 1.9-1.8 0-4.4 8-4.9 15-0.5 7.7 0.7 14.4 4.1 22.2 1 2.4 1.2 3.8 0.6 3.8-0.6 0-0.8 0.4-0.5 1 0.8 1.3-0.1 1.3-2.7-0.1-2.7-1.5-4.5 0.3-2.4 2.4 0.9 0.9 1.6 2.1 1.6 2.7 0 0.7-0.9 0.2-1.9-1.1l-1.9-2.4 0.5 2.8c0.3 1.5 0.9 3 1.4 3.3 1.2 0.7 1.1 3.4-0.1 3.4-0.5 0-0.7-0.6-0.4-1.4 0.7-1.9-1.5-3.1-2.9-1.6-0.9 0.9-0.5 1.7 1.8 3.7 1.7 1.4 2.2 2.3 1.2 1.9-1.6-0.5-1.6-0.3-0.1 3.2 0.9 2 2.3 6.2 3.2 9.2 0.9 3.4 2.8 6.9 4.8 9 1.9 1.9 4.6 5 6.2 6.9 2.2 2.6 3.1 3.1 3.7 2.1q0.75-1.35-0.3-0.6c-0.8 0.5-1-0.2-0.5-2.4 1-5.2 3.1-10.5 4.1-10.3 0.5 0.1 0.7-0.8 0.5-2-0.5-2.8 3.1-14 5.7-17.7 2.3-3.2 2.5-5.1 0.8-6.8-1.6-1.6 0.4-1.6 2.1 0 1.1 1.1 1.3 1 0.9-0.2-0.2-0.8-2.3-1.9-4.5-2.5-2.5-0.6-3.8-1.5-3.6-2.3 0.3-0.6 0.9-0.9 1.5-0.6 0.5 0.4 0.5-0.4-0.2-1.6-1.4-2.6-0.9-8.4 1.9-23 1.1-5.8 3-17.3 4.1-25.5 1.1-8.3 2.7-18.8 3.5-23.5 0.9-4.7 2.4-14.4 3.6-21.5 1.1-7.2 2.9-18.4 4-25 1-6.6 2.8-20.8 3.8-31.5 1.1-10.7 2.5-24 3-29.5 0.6-5.5 1.2-15 1.3-21.1l0.3-11.1-3.2-2.7c-1.8-1.5-3.3-3.6-3.3-4.6 0-1-0.4-2.2-1-2.5-0.5-0.3-1-0.1-1 0.6 0 0.7-0.8 0.6-2.5-0.5-2.8-1.8-2.5-1.8-9-0.1z"/>
	</g>
</svg>