<svg version="1.2" xmlns="http://www.w3.org/2000/svg" viewBox="464 58 66 243.10903251909178" width="66" height="244">
	<style>
		.s0 { fill: #000000 } 
	</style>
	<g>
		<path id="spine" class="s0" d="m483.9 60.5c-1.9 1.4-4.8 4.2-6.5 6.3-1.8 2-3.7 3.8-4.3 3.8-0.6 0.1-1.5 0.2-2.1 0.3-0.5 0-1 0.8-1 1.6 0 0.7-0.6 1.8-1.3 2.2-2 1.2-4.7 6-4.7 8.2 0 1.1 1.2 5.6 2.6 10.1 1.9 5.9 2.9 7.8 3.6 6.8 0.7-0.9 0.8-0.7 0.4 0.7-0.3 1.1 0.3 4.9 1.4 8.5 1.1 3.6 1.7 4.9 1.4 3-0.3-1.9-0.8-4.6-1-6l-0.4-2.5 1 2.4c1 2.2 2.4 8 7 28.6 1.9 8.6 8.8 34.5 11.5 43.5 6.6 21.9 12.3 50.5 12.4 63 0.1 4.5-2.1 12.5-3.1 11.5-0.3-0.3-1.5 2-2.7 5.1-3.1 8.2-2.8 13.3 1.4 21.5 3.9 7.7 4.3 10.4 1.8 13.9-1.6 2.2-1.6 2.3 0.1 1.7 1-0.4 2.2-0.7 2.7-0.7 0.5 0 1-1.5 1-3.3l0.2-3.2 0.6 3.4c0.3 1.9 1.3 3.6 2.1 3.8 1.3 0.4 1.3 0.3 0-0.6-1.3-0.9-1.3-1.1 0.3-1.1 1 0 2-0.7 2.3-1.5 0.4-0.8 1.6-1.5 2.8-1.4 2 0 2 0.1 0.1 0.9-1.6 0.6-1.2 0.9 2 1.1 4.1 0.4 4.1 0.4 7.9 8.4 1 2.1 2.1-1.5 2.1-6.6 0-4.6-0.3-5.5-2.3-6.5-3.1-1.5-5.4-3.9-3-3.1 0.9 0.3 3.2 0.9 5.1 1.2 4.1 0.8 4.7-0.4 4.7-10.8 0-5-0.8-8.9-3.1-15.5-6-16.8-7.7-24.4-9.3-41.7-1.8-19.3-7-57.5-9.6-71-0.5-2.8-2.1-12-3.5-20.5-1.5-8.5-3.3-18.4-4-22-1.9-8.8-4.4-23-5.5-31.1-1.2-8.5-3.7-14.9-5.9-14.9-0.9 0-3.3 1.1-5.2 2.5zm41 237.8c0.1 0.5-0.3 0.5-0.9 0.2-0.5-0.3-1-1.6-0.9-2.8 0-2.1 0.1-2.1 0.9-0.2 0.5 1.1 0.9 2.4 0.9 2.8z"/>
	</g>
</svg>