<svg version="1.2" xmlns="http://www.w3.org/2000/svg" viewBox="667 402.1148603314283 50.299106525733805 58.42173502587707" width="51" height="59">
	<style>
		.s0 { fill: #000000 } 
	</style>
	<g>
		<path id="back_vertabrae" class="s0" d="m670.5 403c-0.3 0.5 1 2.5 2.9 4.4 6.5 6.5 6.8 13.2 1 18.7-2 1.9-2.4 2-2.4 0.6 0-0.9-0.6-1.7-1.4-1.7-1.3 0-3.6 8.7-3.6 14 0 4.1 1.5 4.8 8.4 4.3 7.5-0.6 9 0.2 20.4 11.2 6.7 6.4 7.4 6.9 8.6 5.2 0.8-1 1.7-4.4 2-7.5 0.4-3.1 1.2-8.9 1.8-12.9 1-6.4 1-7.4-0.5-9.1-1.9-2.1-1.3-3.2 1.5-3.2 8.4 0 11.4-10.8 3.5-12.4-1.2-0.3-5.3-1-9.2-1.6-8.5-1.4-12.8-2.8-22.5-7.4-7.9-3.8-9.5-4.2-10.5-2.6z"/>
	</g>
</svg>