<svg version="1.2" xmlns="http://www.w3.org/2000/svg" viewBox="832.5791078743744 613 116.39170080412646 85.68378091336672" width="117" height="86">
	<style>
		.s0 { fill: #000000 } 
	</style>
	<g>
		<path id="leg_bone" class="s0" d="m848.8 616.5c-1.3 1.9-3 3.7-3.8 4-0.9 0.3-2.3 1.8-3.3 3.4-0.9 1.6-3.2 4.2-5 5.6-4.7 4-5 5-2.8 9.4 1.8 3.5 2.6 4 7.3 4.9 19.6 3.7 31.9 7.3 35.3 10.3 1.1 0.9 3.7 2.4 5.8 3.3 2 0.8 6.1 3 9 4.9 2.8 1.9 7.5 4.7 10.2 6.3 8 4.6 8.2 4.8 12.7 7.9 7.9 5.5 14.3 10.5 20.7 16.3 7.4 6.6 8.1 7.1 7.4 4.2-0.4-1.4 0.2-2.7 1.8-4 1.3-1.1 3-2.4 3.7-3 2.2-1.9 1.3-3.8-2.7-5.3-2.2-0.9-6.6-4-9.9-6.9-8.4-7.5-30.9-22.9-38.7-26.5-3.8-1.8-13.4-7.6-21.2-13-5.6-3.9-14.3-13.5-17.2-19.1-1.9-3.5-4.4-6.2-5.8-6.2-0.7 0-2.3 1.6-3.5 3.5z"/>
	</g>
</svg>