<svg version="1.2" xmlns="http://www.w3.org/2000/svg" viewBox="1218.3001972386587 594.7927628584433 28.315264923548966 29.660204993341154" width="29" height="31">
	<style>
		.s0 { fill: #000000 } 
	</style>
	<g>
		<path id="tail_bone" class="s0" d="m1219.4 595.1c-0.3 0.5 0.6 1.9 2.1 3l2.6 2.1-2.4 2.2c-1.9 1.8-2.5 3.7-3.1 9.2-0.4 3.9-0.4 7.8 0 8.7 0.7 2 4 2.3 4.7 0.4 0.2-0.7 2.3-1.2 5.3-1.2 4 0 5.7 0.6 8.2 2.7 1.8 1.5 3.9 2.5 4.6 2.2 2.4-0.9 6.7-20.1 4.7-21.3-0.6-0.4-0.9-2-0.8-3.6 0.2-2.8 0.1-2.9-3.8-2.6-2.2 0.1-4.4 0.7-4.9 1.2-1.3 1.2-6.1 1.2-8.4 0-5.1-2.8-8.2-3.9-8.8-3z"/>
	</g>
</svg>