<?xml version="1.0" standalone="no"?>
<!DOCTYPE svg PUBLIC "-//W3C//DTD SVG 20010904//EN"
 "http://www.w3.org/TR/2001/REC-SVG-20010904/DTD/svg10.dtd">
<svg version="1.0" xmlns="http://www.w3.org/2000/svg"
 width="597.000000pt" height="447.000000pt" viewBox="0 0 597.000000 447.000000"
 preserveAspectRatio="xMidYMid meet">

<g transform="translate(0.000000,447.000000) scale(0.100000,-0.100000)"
fill="#000000" stroke="none">
<path d="M3528 2781 c-41 -35 -65 -62 -62 -72 2 -9 -26 -44 -72 -90 -119 -116
-220 -270 -124 -189 130 110 201 160 223 160 16 0 17 -7 14 -50 -3 -27 -2 -50
2 -50 32 1 101 114 101 167 0 18 9 55 20 83 25 64 25 63 -7 82 -28 15 -29 15
-95 -41z m38 -10 c-4 -5 -25 -24 -49 -42 l-42 -33 45 45 c41 42 61 55 46 30z"/>
<path d="M3666 2799 c-9 -13 -16 -31 -16 -39 0 -9 -4 -20 -10 -26 -5 -5 -14
-40 -19 -77 -6 -40 -18 -80 -32 -99 -57 -83 -107 -115 -96 -62 4 22 2 25 -17
19 -11 -4 -39 -10 -61 -14 -45 -8 -81 -28 -141 -81 -23 -19 -71 -57 -108 -84
-36 -27 -66 -55 -66 -62 0 -7 -6 -11 -14 -8 -20 8 -265 -238 -258 -259 1 -5
-11 -31 -28 -58 -17 -28 -35 -72 -41 -99 -6 -28 -12 -50 -15 -50 -8 0 9 96 21
110 6 8 21 32 33 52 18 32 18 36 4 31 -15 -6 -15 -5 -3 10 9 11 10 17 2 17
-10 0 -15 -13 -13 -31 1 -4 -8 -15 -18 -24 -11 -10 -20 -15 -20 -10 0 17 42
75 55 75 7 0 39 28 71 62 111 116 150 153 247 228 64 49 97 81 97 94 0 11 8
28 17 38 9 11 17 30 18 44 0 17 10 31 28 42 36 21 172 152 159 152 -12 0 -88
-57 -142 -105 -158 -142 -252 -230 -355 -330 -174 -170 -306 -285 -473 -410
-174 -130 -191 -154 -192 -273 0 -53 6 -84 22 -120 31 -67 46 -82 86 -82 28 0
32 3 23 14 -14 16 -6 43 22 74 18 19 18 22 4 22 -10 0 -17 8 -17 18 0 20 33
56 42 47 3 -3 12 15 19 40 8 25 23 54 34 63 l20 17 -20 -25 -20 -25 21 18 c13
11 20 26 17 36 -6 25 14 36 34 19 12 -9 15 -9 9 0 -11 18 3 35 18 23 14 -12
71 21 71 40 0 7 16 21 35 32 l35 19 -19 -21 c-20 -22 -20 -22 0 -15 24 9 61
34 50 34 -5 0 -3 7 4 15 14 16 55 21 45 5 -3 -5 -2 -10 3 -10 5 0 12 8 15 19
4 15 18 20 75 26 50 5 76 12 88 26 9 10 33 23 53 30 49 16 71 37 71 69 0 33
15 47 54 52 22 2 30 8 31 26 2 33 28 55 54 47 13 -4 19 -11 14 -18 -3 -7 3 -3
15 7 16 14 19 22 11 32 -6 7 -8 22 -4 32 6 22 58 48 73 38 14 -9 43 4 36 15
-11 19 19 39 55 38 20 0 30 -3 24 -6 -7 -2 -13 -9 -13 -14 0 -5 11 -3 25 3 25
11 34 28 16 28 -14 0 -4 42 11 52 7 4 21 8 31 8 27 0 57 19 57 35 0 17 36 39
50 30 13 -8 50 18 64 47 8 17 20 23 43 23 24 0 29 -3 21 -13 -19 -22 -3 -22
29 0 23 17 30 29 29 53 -1 24 3 30 19 31 11 0 34 8 52 17 47 25 54 20 9 -6
-22 -12 -42 -29 -44 -36 -3 -8 15 -1 38 17 24 18 45 39 46 47 3 18 4 18 -71 1
-33 -8 -62 -12 -65 -9 -3 2 11 17 29 32 33 27 34 30 22 59 -7 18 -11 39 -7 47
4 11 -7 9 -42 -10 -26 -14 -60 -25 -76 -25 -26 0 -28 2 -23 33 3 17 8 42 12
54 6 17 3 22 -16 25 -13 2 -29 14 -35 26 l-12 24 -16 -23z m-466 -344 c-24
-25 -47 -45 -51 -45 -8 0 83 89 91 90 2 0 -16 -20 -40 -45z m520 41 c0 -2 -7
-7 -16 -10 -8 -3 -12 -2 -9 4 6 10 25 14 25 6z m-51 -19 c-14 -12 -68 -34 -63
-26 3 6 16 14 28 19 21 9 43 13 35 7z m-117 -54 c-7 -3 -27 -16 -45 -30 -21
-16 -18 -12 7 11 22 20 42 33 45 30 3 -4 0 -9 -7 -11z m-262 -147 c0 -2 -8
-10 -17 -17 -16 -13 -17 -12 -4 4 13 16 21 21 21 13z m-40 -26 c0 -5 -7 -10
-16 -10 -8 0 -12 5 -9 10 3 6 10 10 16 10 5 0 9 -4 9 -10z m-140 -134 c0 -3
-4 -8 -10 -11 -5 -3 -10 -1 -10 4 0 6 5 11 10 11 6 0 10 -2 10 -4z m-94 -84
c-17 -16 -18 -16 -5 5 7 12 15 20 18 17 3 -2 -3 -12 -13 -22z m-116 -52 c0 -5
-4 -10 -10 -10 -5 0 -10 5 -10 10 0 6 5 10 10 10 6 0 10 -4 10 -10z m60 -10
c0 -5 -5 -10 -11 -10 -5 0 -7 5 -4 10 3 6 8 10 11 10 2 0 4 -4 4 -10z m-320
-100 c0 -5 -5 -10 -11 -10 -5 0 -7 5 -4 10 3 6 8 10 11 10 2 0 4 -4 4 -10z
m10 -40 c0 -5 -5 -10 -11 -10 -5 0 -7 5 -4 10 3 6 8 10 11 10 2 0 4 -4 4 -10z
m-1 -83 c-2 -1 -15 -11 -29 -22 l-25 -20 19 23 c11 12 24 22 29 22 6 0 8 -1 6
-3z m-152 -33 c-3 -3 -12 -4 -19 -1 -8 3 -5 6 6 6 11 1 17 -2 13 -5z m-86
-117 c-13 -13 -26 -3 -16 12 3 6 11 8 17 5 6 -4 6 -10 -1 -17z m-31 -61 c0 -3
-4 -8 -10 -11 -5 -3 -10 -1 -10 4 0 6 5 11 10 11 6 0 10 -2 10 -4z m-10 -67
c0 -5 -4 -9 -10 -9 -5 0 -10 7 -10 16 0 8 5 12 10 9 6 -3 10 -10 10 -16z m-5
-59 c3 -5 1 -10 -4 -10 -6 0 -11 5 -11 10 0 6 2 10 4 10 3 0 8 -4 11 -10z"/>
<path d="M3894 2598 l-19 -21 34 6 c18 4 37 7 42 7 5 0 9 7 9 15 0 23 -44 18
-66 -7z"/>
<path d="M3275 2520 c-10 -11 -13 -20 -7 -20 6 0 16 9 22 20 6 11 9 20 7 20
-2 0 -12 -9 -22 -20z"/>
<path d="M3704 2390 c-24 -9 -41 -30 -26 -30 6 0 20 9 33 20 26 21 25 23 -7
10z"/>
<path d="M3593 2323 c-7 -2 -13 -11 -13 -19 0 -12 4 -12 20 -4 32 17 26 37 -7
23z"/>
<path d="M3385 2179 c-11 -17 1 -21 15 -4 8 9 8 15 2 15 -6 0 -14 -5 -17 -11z"/>
<path d="M3137 2013 c-4 -3 -7 -17 -7 -30 0 -16 6 -23 19 -23 25 0 34 14 26
40 -6 20 -25 26 -38 13z"/>
<path d="M3038 1896 c-16 -8 -32 -17 -37 -21 -11 -6 4 -58 25 -89 12 -17 13
-16 28 12 19 36 32 112 20 112 -5 0 -21 -7 -36 -14z"/>
<path d="M2437 1523 c-23 -22 14 -53 39 -32 11 9 11 15 3 25 -12 15 -31 18
-42 7z"/>
<path d="M2432 1447 c-20 -24 -18 -52 4 -55 17 -2 21 2 22 27 1 34 -11 47 -26
28z"/>
</g>
</svg>
