<svg version="1.2" xmlns="http://www.w3.org/2000/svg" viewBox="1586 601.9925925925926 75.32482341239756 108.67704782616033" width="76" height="110">
	<style>
		.s0 { fill: #000000 } 
	</style>
	<g>
		<path id="tail_spine" class="s0" d="m1656.3 604.2c-2.8 3.2-13.3 18.6-13.3 19.5 0 0.5-0.8 1.3-1.8 2-2.3 1.4-14.7 20-23.2 34.8-11.3 19.4-18.7 29-23.2 29.9-2.9 0.6-3.6 0.3-6-2.6-1.7-2-2.8-2.6-2.8-1.7 0 0.8 0.5 2 1.2 2.7 0.9 0.9 0.9 1.7-0.1 3.6-1.5 2.7-0.7 17.1 1 18.2 0.5 0.3 2.1-0.4 3.5-1.5 2.8-2.2 6.6-2.6 12.7-1.2l3.7 0.9v-8.4c0-6.8-0.3-8.4-1.5-8.4-0.8 0-1.5-0.6-1.5-1.3 0-3.5 8-19.6 15.3-30.8 0.9-1.4 1.4-2.9 1-3.2-0.3-0.4-0.2-0.7 0.4-0.7 0.6 0 2.7-2.7 4.8-6 2.1-3.3 4.2-6 4.6-6 0.5 0 0.9-0.5 0.9-1.1 0-1.1 0.7-2 8.4-11.9 15-19.2 21.4-27.9 20.9-28.4-1.2-1.2-3-0.6-5 1.6z"/>
	</g>
</svg>