<?xml version="1.0" standalone="no"?>
<!DOCTYPE svg PUBLIC "-//W3C//DTD SVG 20010904//EN"
 "http://www.w3.org/TR/2001/REC-SVG-20010904/DTD/svg10.dtd">
<svg version="1.0" xmlns="http://www.w3.org/2000/svg"
 width="2036.000000pt" height="848.000000pt" viewBox="0 0 2036.000000 848.000000"
 preserveAspectRatio="xMidYMid meet">

<g transform="translate(0.000000,848.000000) scale(0.100000,-0.100000)"
fill="#000000" stroke="none">
<path d="M1118 8263 c6 -2 18 -2 25 0 6 3 1 5 -13 5 -14 0 -19 -2 -12 -5z"/>
<path d="M353 8253 c9 -2 23 -2 30 0 6 3 -1 5 -18 5 -16 0 -22 -2 -12 -5z"/>
<path d="M998 8253 c7 -3 16 -2 19 1 4 3 -2 6 -13 5 -11 0 -14 -3 -6 -6z"/>
<path d="M1583 8253 c9 -2 23 -2 30 0 6 3 -1 5 -18 5 -16 0 -22 -2 -12 -5z"/>
<path d="M6079 8015 c18 -8 36 -15 40 -15 13 1 -45 29 -59 29 -8 0 0 -6 19
-14z"/>
<path d="M1795 7836 c-49 -16 -194 -86 -201 -97 -3 -5 3 -9 14 -9 30 0 34 -13
10 -33 -17 -14 -19 -17 -5 -13 11 3 16 2 12 -4 -3 -6 -21 -10 -38 -10 -39 0
-77 -24 -77 -49 0 -10 -7 -35 -15 -54 -16 -39 -20 -93 -7 -100 4 -3 19 -3 34
0 l28 5 -20 25 c-26 34 -26 36 15 68 43 32 57 25 75 -40 13 -47 42 -81 59 -70
7 4 9 -1 5 -12 -5 -15 -4 -16 5 -3 6 8 11 29 11 46 0 17 11 47 24 67 28 40 41
77 29 77 -13 0 -14 49 -3 71 13 24 37 24 62 2 18 -16 21 -16 50 16 32 34 32
41 0 44 -20 1 -20 1 -1 25 43 56 17 74 -66 48z"/>
<path d="M799 7778 c-1 -7 -1 -20 0 -28 0 -9 -2 -10 -5 -3 -9 20 -34 2 -35
-26 -2 -23 -2 -24 -6 -3 -7 35 -33 27 -34 -10 0 -20 -3 -27 -7 -18 -4 8 -15
16 -24 18 -15 2 -17 -3 -13 -30 5 -30 1 -26 -11 11 -6 19 -54 -34 -54 -60 0
-13 -4 -18 -12 -13 -8 5 -9 2 -5 -9 4 -10 2 -16 -6 -14 -7 1 -12 -5 -12 -13 0
-8 8 -14 17 -14 13 1 9 -7 -15 -32 -17 -19 -33 -30 -35 -24 -6 16 -32 -9 -32
-30 0 -11 10 -20 26 -24 25 -7 44 3 79 39 6 5 40 36 77 69 37 32 66 62 63 66
-3 5 12 21 32 37 69 51 87 85 61 111 -16 16 -48 15 -49 0z m-139 -139 c0 -15
-4 -30 -9 -33 -5 -4 -7 2 -4 13 3 10 0 22 -6 25 -16 10 -13 23 4 23 10 0 15
-10 15 -28z m60 -40 c-30 -26 -84 -62 -70 -46 10 11 95 76 100 76 3 0 -11 -13
-30 -30z m-93 -11 c-3 -8 -6 -5 -6 6 -1 11 2 17 5 13 3 -3 4 -12 1 -19z"/>
<path d="M897 7720 c-8 -11 -17 -17 -20 -13 -4 3 -7 -3 -7 -15 0 -12 -5 -21
-11 -19 -10 2 -28 -44 -43 -110 -6 -26 -5 -26 14 7 10 19 19 31 20 27 0 -12
-31 -69 -46 -85 -23 -22 -36 -52 -24 -52 18 0 71 30 66 38 -2 4 2 16 10 27 8
10 14 14 14 9 0 -6 -5 -15 -12 -22 -26 -26 9 -10 38 17 39 37 63 125 44 162
-13 23 -13 23 -22 4 -5 -14 -6 -10 -2 13 6 37 1 40 -19 12z m-40 -92 c-3 -7
-5 -2 -5 12 0 14 2 19 5 13 2 -7 2 -19 0 -25z m43 -25 c-23 -41 -23 -38 0 20
8 21 16 34 18 28 2 -5 -6 -27 -18 -48z"/>
<path d="M1414 7639 c4 -13 14 -53 24 -89 l17 -65 3 45 c3 51 -18 122 -38 128
-9 3 -11 -2 -6 -19z"/>
<path d="M5888 7630 c-52 -16 -86 -49 -107 -105 -17 -45 -23 -95 -31 -273 -6
-119 -15 -269 -20 -332 -11 -136 -26 -456 -40 -885 -18 -514 -24 -586 -67
-712 -34 -98 -37 -118 -37 -215 1 -60 4 -111 7 -115 4 -3 38 -7 75 -8 44 -2
82 -10 112 -23 48 -23 105 -29 115 -12 4 6 7 51 7 99 0 85 -8 131 -37 196 -37
85 -63 178 -69 245 -7 69 17 613 29 687 3 18 15 123 25 235 25 248 53 511 79
723 11 88 27 220 36 294 19 152 15 196 -18 205 -25 7 -24 7 -59 -4z"/>
<path d="M1308 7559 c-23 -17 -26 -25 -21 -52 3 -18 7 -53 8 -80 1 -26 5 -50
8 -53 12 -13 54 25 60 54 5 25 -13 136 -24 147 -2 2 -16 -5 -31 -16z"/>
<path d="M552 7548 c-14 -14 -16 -28 -2 -28 5 0 14 9 20 20 12 22 1 27 -18 8z"/>
<path d="M6348 7496 c-24 -23 -37 -112 -48 -311 -15 -282 -21 -251 53 -261 34
-4 70 -7 79 -6 9 1 18 -6 21 -16 7 -30 29 69 31 142 1 39 5 78 9 86 14 33 37
172 37 224 0 65 -9 91 -45 129 -21 22 -34 27 -75 27 -28 0 -54 -6 -62 -14z"/>
<path d="M1494 7140 c-36 -18 -47 -33 -97 -133 -30 -61 -68 -140 -82 -174 -15
-34 -36 -70 -46 -79 -18 -16 -17 -40 2 -29 5 4 22 -2 39 -11 16 -10 31 -16 33
-13 32 42 81 118 111 171 20 37 53 89 73 115 33 42 103 158 103 169 0 13 -101
1 -136 -16z"/>
<path d="M6266 6753 c-3 -32 -8 -92 -11 -133 -4 -41 -12 -136 -20 -210 -28
-273 -28 -254 5 -278 19 -15 44 -22 73 -22 l43 0 17 133 c19 149 52 386 65
465 5 28 8 52 8 52 -1 0 -25 9 -54 19 -35 13 -52 16 -52 8 0 -9 -2 -9 -8 0 -4
6 -19 14 -34 18 -25 6 -26 5 -32 -52z"/>
<path d="M2515 6446 c-21 -50 -38 -144 -36 -205 0 -42 5 -57 21 -68 11 -8 20
-24 19 -36 -1 -21 -2 -20 -9 3 -4 14 -8 21 -9 16 -1 -5 -7 -3 -15 3 -19 16
-81 -15 -97 -49 -6 -14 -16 -33 -21 -43 -13 -26 -8 -28 37 -13 64 21 95 27 95
17 0 -4 -17 -11 -39 -15 -44 -7 -114 -35 -90 -36 9 0 47 9 84 21 56 17 68 25
76 49 10 26 14 28 65 29 47 0 59 -4 89 -30 19 -17 35 -38 35 -48 0 -14 -2 -14
-11 -1 -9 12 -10 12 -7 1 3 -8 10 -17 18 -19 10 -4 12 7 7 50 -4 32 -2 69 4
86 11 32 18 35 158 63 49 10 81 33 80 58 0 12 -3 11 -9 -4 -6 -15 -9 -9 -9 27
-1 25 -4 55 -7 65 -5 16 -4 16 10 -1 13 -17 16 -17 16 -4 0 26 -34 31 -159 23
-102 -6 -119 -10 -144 -31 -30 -26 -71 -32 -83 -12 -4 6 -8 33 -10 60 -4 79
-35 102 -59 44z m-31 -344 c-16 -4 -54 15 -54 27 0 5 15 1 34 -8 18 -9 27 -17
20 -19z"/>
<path d="M5278 6453 c-20 -5 -22 -28 -12 -159 l7 -80 31 -1 c17 -1 46 -3 64
-4 17 -1 35 0 38 3 3 3 0 60 -7 127 l-12 121 -46 -1 c-25 -1 -54 -3 -63 -6z"/>
<path d="M3875 6413 c3 -20 17 -71 30 -112 13 -42 33 -110 45 -151 12 -41 38
-128 58 -193 l37 -118 50 7 c28 3 51 7 52 8 0 0 -11 51 -26 111 -15 61 -40
162 -56 225 -51 210 -81 260 -158 260 l-39 0 7 -37z"/>
<path d="M2414 6376 c-27 -10 -30 -14 -23 -38 13 -48 23 -56 30 -23 l7 30 1
-32 c1 -22 6 -33 16 -33 33 0 47 103 15 106 -8 1 -29 -3 -46 -10z"/>
<path d="M2296 6361 c-20 -22 -20 -40 -1 -65 8 -11 15 -33 15 -50 0 -38 14
-25 17 17 1 18 5 45 9 60 6 27 5 28 -22 22 l-29 -5 29 13 c21 11 25 15 13 20
-8 3 -22 -2 -31 -12z"/>
<path d="M4357 6213 c-45 -4 -47 -5 -41 -31 4 -15 24 -96 45 -180 21 -84 41
-175 45 -202 4 -28 9 -50 13 -50 3 0 27 8 54 17 33 12 46 22 43 32 -2 9 -14
61 -26 116 -12 55 -28 125 -35 155 -7 30 -16 76 -20 103 -4 26 -12 46 -19 45
-6 -1 -32 -3 -59 -5z"/>
<path d="M5375 6144 c-4 -10 -13 -34 -21 -52 -8 -18 -14 -41 -14 -51 0 -10 -9
-25 -21 -33 -21 -13 -21 -17 -11 -146 6 -72 14 -137 17 -143 5 -7 14 -4 26 7
15 13 22 15 31 6 7 -7 23 -12 36 -12 24 0 24 1 18 63 -3 34 -9 120 -12 192 -5
98 -11 136 -25 159 -16 27 -19 28 -24 10z"/>
<path d="M3669 6063 c-21 -25 -15 -84 24 -248 39 -161 62 -268 73 -327 6 -37
7 -38 51 -38 24 0 53 5 63 10 19 10 19 11 -2 46 -17 29 -25 34 -45 29 -19 -4
-25 0 -33 20 -16 43 -12 65 11 65 24 0 24 -1 -10 140 -12 47 -29 126 -40 175
-10 50 -24 102 -30 118 -12 31 -41 36 -62 10z"/>
<path d="M6196 5950 c-3 -19 -10 -75 -16 -125 -6 -49 -15 -112 -21 -138 -6
-26 -9 -50 -7 -52 3 -3 37 9 76 27 64 28 72 35 72 59 0 16 4 50 9 76 5 26 12
67 15 91 6 42 6 42 -25 42 -34 0 -68 15 -86 39 -9 13 -12 10 -17 -19z"/>
<path d="M4280 5420 c-14 -4 -52 -5 -85 -3 -85 6 -91 -1 -70 -73 12 -41 15
-74 10 -111 -6 -52 -7 -53 -48 -64 -73 -20 -71 -19 -60 -30 6 -6 22 -17 35
-23 12 -6 24 -22 26 -34 5 -35 30 -26 53 19 17 35 23 55 28 100 1 3 23 7 49 8
35 1 53 -4 69 -18 21 -20 21 -20 42 3 11 12 21 34 21 48 0 22 -36 179 -43 183
-1 1 -13 -1 -27 -5z"/>
<path d="M6146 5310 c-32 -22 -64 -40 -72 -40 -34 0 -64 -123 -64 -267 0 -46
4 -83 9 -83 23 0 69 24 96 50 17 16 47 36 68 45 21 9 46 29 57 48 23 40 36 54
50 59 9 3 10 21 5 61 l-7 58 -24 -16 c-36 -24 -46 -10 -42 58 2 34 -1 62 -7
63 -5 2 -36 -14 -69 -36z"/>
<path d="M3569 4868 c-17 -12 -19 -6 27 -106 18 -39 21 -42 38 -29 18 13 18
16 -13 80 -17 37 -32 67 -33 66 -2 0 -10 -5 -19 -11z"/>
<path d="M5293 4812 c-23 -22 -55 -45 -72 -52 -17 -7 -31 -16 -31 -21 0 -19
23 -19 67 1 27 12 66 22 87 23 34 1 43 -4 74 -38 50 -57 117 -204 145 -320 55
-220 62 -295 63 -658 0 -185 4 -340 8 -344 3 -4 12 -1 19 6 17 17 22 475 8
669 -22 302 -87 514 -199 652 -47 57 -110 120 -120 120 -4 0 -26 -17 -49 -38z"/>
<path d="M6301 4596 c-19 -22 4 -64 44 -80 19 -8 35 -20 35 -25 0 -6 10 -10
22 -8 15 1 26 -5 32 -19 l10 -22 38 25 c21 14 38 27 38 28 0 1 -20 -1 -44 -5
-41 -6 -46 -4 -65 21 -12 16 -21 37 -21 49 0 11 -2 20 -4 20 -2 0 -19 7 -39
15 -29 12 -37 12 -46 1z"/>
<path d="M5937 4535 c-15 -11 -14 -21 16 -114 l32 -103 50 -25 c27 -14 74 -48
104 -76 51 -48 54 -50 67 -32 8 10 14 33 14 49 0 17 5 49 10 70 9 43 -1 83
-14 51 -3 -9 -9 -48 -12 -86 -4 -38 -11 -72 -15 -75 -5 -3 -7 8 -4 23 27 173
28 193 10 233 -10 22 -21 37 -26 35 -4 -3 -10 4 -14 15 -3 11 -17 22 -31 25
-13 3 -35 7 -49 10 -14 3 -34 1 -45 -5 -16 -8 -20 -8 -20 4 0 18 -49 19 -73 1z
m63 -33 c-21 -7 3 -22 35 -22 35 0 152 -46 143 -56 -3 -3 -30 6 -59 20 -29 14
-69 26 -88 26 -29 0 -85 19 -58 20 4 0 3 9 -2 19 -10 17 -9 18 14 7 13 -6 20
-13 15 -14z"/>
<path d="M3713 4533 c-16 -6 -17 -27 -3 -51 11 -20 17 -36 110 -313 38 -114
72 -223 75 -242 12 -61 56 -76 54 -19 -1 37 -201 625 -214 628 -5 1 -16 0 -22
-3z"/>
<path d="M6552 4498 c9 -7 19 -31 23 -53 4 -22 11 -46 17 -52 7 -9 7 -13 0
-13 -11 0 -32 53 -32 81 0 29 -20 33 -51 10 -15 -11 -32 -21 -37 -21 -5 0 -17
-9 -27 -20 -20 -22 -56 -23 -62 -3 -3 7 3 10 15 6 26 -6 38 15 20 34 -13 13
-17 13 -31 -2 -9 -9 -33 -22 -54 -29 -41 -15 -44 -27 -22 -82 7 -16 20 -54 28
-84 15 -53 17 -55 58 -62 60 -10 90 -29 158 -97 33 -34 66 -61 75 -60 10 0 11
2 3 6 -18 7 -17 130 2 183 8 23 15 53 15 66 0 13 4 24 9 24 5 0 3 -26 -6 -57
-17 -68 -28 -199 -14 -168 5 11 10 31 10 45 0 14 8 57 17 96 l17 71 -28 57
c-32 65 -51 84 -41 40 5 -21 4 -25 -4 -14 -5 8 -10 21 -10 28 0 27 -33 82 -48
82 -14 0 -14 -1 0 -12z m-6 -138 c43 -22 71 -40 63 -40 -9 0 -43 14 -75 31
-32 18 -81 35 -109 39 l-50 8 47 1 c36 1 63 -8 124 -39z"/>
<path d="M5840 4430 c-7 -25 -13 -63 -14 -85 -1 -36 2 -40 25 -43 35 -4 49 16
40 58 -7 37 -14 33 -25 -14 -12 -49 -17 -22 -6 31 7 31 7 58 2 74 -9 23 -10
21 -22 -21z"/>
<path d="M6705 4450 c-4 -6 7 -24 24 -39 40 -37 64 -94 56 -131 -10 -46 9 -70
55 -70 21 0 42 -4 45 -10 3 -5 35 -24 70 -42 36 -17 63 -34 61 -36 -3 -2 -40
15 -83 37 -43 23 -91 41 -105 41 l-26 0 15 -52 c8 -29 18 -69 23 -88 5 -19 15
-37 22 -39 7 -2 48 -38 91 -80 72 -70 80 -75 92 -58 7 10 16 44 19 75 4 31 12
89 18 129 11 65 10 74 -6 92 -13 14 -16 28 -12 45 4 17 -1 36 -15 58 l-21 33
7 -49 c4 -27 9 -56 11 -65 2 -9 -2 -2 -10 14 -8 17 -15 47 -16 68 0 50 -15 77
-43 77 -22 0 -117 -82 -117 -101 0 -6 24 3 53 20 44 25 57 28 69 18 16 -13 43
-95 34 -104 -3 -3 -11 16 -18 42 -18 66 -25 68 -102 21 -51 -30 -89 -23 -94
18 -3 27 -2 28 29 24 l33 -5 -37 31 c-20 17 -37 39 -37 50 0 16 5 18 40 12 60
-9 49 7 -28 43 -74 34 -87 36 -97 21z"/>
<path d="M6800 4373 c0 -13 13 -26 46 -50 l31 -21 29 24 29 23 -32 1 c-17 0
-33 4 -35 9 -4 11 -68 25 -68 14z"/>
<path d="M7095 4330 c3 -5 18 -10 32 -10 32 0 28 5 -10 14 -19 4 -26 3 -22 -4z"/>
<path d="M7120 4298 c0 -7 8 -25 18 -40 l18 -27 10 34 c6 19 7 32 3 29 -4 -2
-10 0 -14 6 -9 14 -35 12 -35 -2z"/>
<path d="M6810 4270 c0 -13 7 -20 20 -20 13 0 20 7 20 20 0 13 -7 20 -20 20
-13 0 -20 -7 -20 -20z"/>
<path d="M6251 4248 c-1 -32 8 -58 20 -58 13 0 10 20 -6 55 l-13 30 -1 -27z"/>
<path d="M8155 4229 c-75 -24 -109 -54 -141 -124 -22 -48 -25 -67 -23 -152 2
-90 5 -103 37 -166 43 -84 87 -123 146 -132 37 -6 53 -3 83 15 21 13 49 26 63
30 l25 7 -6 -56 c-3 -31 -11 -68 -17 -82 -14 -35 -5 -45 51 -52 45 -6 50 -5
80 26 18 18 41 39 52 47 11 7 5 0 -12 -18 -18 -17 -33 -36 -33 -41 0 -10 89
34 100 49 10 14 51 31 60 25 6 -4 9 -1 8 6 -2 9 14 13 52 15 103 3 130 -24
106 -106 -10 -35 -12 -52 -4 -56 7 -4 8 -2 4 4 -4 7 -2 12 3 12 6 0 11 -7 11
-15 0 -21 37 -90 60 -110 22 -19 40 -13 40 15 0 27 58 90 83 90 17 0 13 7 -24
41 -60 56 -6 18 73 -52 61 -54 144 -109 165 -109 6 0 22 18 36 40 20 29 36 41
63 46 45 8 53 29 63 152 5 72 3 101 -7 123 -8 16 -18 29 -23 29 -5 0 -9 6 -9
14 0 15 -89 94 -135 119 -16 9 -93 46 -170 83 -77 36 -183 86 -235 111 -135
64 -134 64 -150 67 -8 1 -33 10 -55 20 -22 10 -50 18 -62 18 -13 0 -20 4 -18
9 3 4 -11 13 -32 18 -21 6 -78 22 -128 36 -106 29 -103 29 -180 4z m615 -560
l25 -20 -32 15 c-38 19 -114 21 -133 4 -12 -11 -12 -10 -1 5 20 25 108 23 141
-4z m105 -87 c19 -22 23 -30 10 -22 -11 7 -33 29 -50 48 -19 22 -23 30 -10 22
11 -7 33 -29 50 -48z m-320 28 c-3 -5 -12 -10 -18 -10 -7 0 -6 4 3 10 19 12
23 12 15 0z"/>
<path d="M6690 4219 c0 -5 5 -7 12 -3 8 5 9 2 5 -10 -4 -10 -7 -28 -7 -41 0
-13 -7 -30 -15 -39 -19 -18 -20 -60 -2 -74 7 -7 29 -9 49 -6 l35 6 -10 44
c-11 48 -24 57 -31 22 -3 -13 -7 -32 -9 -43 -4 -15 -5 -13 -6 7 0 15 4 38 10
52 15 31 3 96 -16 96 -8 0 -15 -5 -15 -11z"/>
<path d="M4157 4193 c-4 -7 37 -330 49 -390 2 -13 12 -23 21 -23 14 0 15 13
10 113 -3 61 -10 135 -16 162 -5 28 -13 71 -16 98 -5 37 -10 47 -25 47 -10 0
-21 -3 -23 -7z"/>
<path d="M6682 4165 c0 -16 2 -22 5 -12 2 9 2 23 0 30 -3 6 -5 -1 -5 -18z"/>
<path d="M4527 3848 c3 -84 9 -157 13 -161 3 -4 14 -5 24 -1 15 6 16 23 14
158 l-3 151 -27 3 -27 3 6 -153z"/>
<path d="M4860 3716 c0 -112 3 -146 14 -155 27 -22 36 21 36 163 l0 136 -25 0
-25 0 0 -144z"/>
<path d="M10595 3737 c-4 -13 -19 -35 -34 -50 -16 -14 -34 -41 -42 -59 -11
-29 -48 -86 -141 -221 -15 -21 -35 -59 -44 -85 -10 -26 -22 -50 -27 -53 -6 -4
-8 -18 -5 -32 8 -44 -45 -51 -82 -12 -50 53 -68 16 -24 -48 29 -44 29 -81 -2
-85 -21 -3 -58 -54 -47 -66 3 -3 1 -6 -5 -6 -7 0 -12 -6 -12 -12 0 -7 -7 -26
-16 -43 -9 -16 -17 -46 -19 -66 -1 -20 -5 -42 -9 -48 -12 -18 13 -53 32 -45
48 21 78 16 112 -17 l33 -33 18 23 c11 13 19 37 19 55 0 35 63 173 91 197 23
20 43 130 25 141 -7 5 -1 27 21 70 17 35 56 128 86 208 30 80 68 176 85 213
17 37 29 74 25 82 -8 23 -32 18 -38 -8z"/>
<path d="M9580 3619 c0 -5 -6 -9 -14 -9 -8 0 -17 -9 -21 -20 -3 -11 -20 -29
-37 -41 -25 -18 -34 -20 -50 -10 -29 18 -38 5 -38 -53 0 -42 5 -59 24 -81 22
-26 28 -27 50 -17 28 12 36 42 11 42 -48 0 -87 49 -49 64 22 8 26 8 19 -4 -4
-6 5 -10 19 -10 14 0 26 -4 26 -10 0 -5 11 -10 24 -10 14 0 28 5 31 10 3 6 12
10 18 9 9 0 9 -2 0 -6 -16 -6 -18 -76 -2 -71 6 2 18 16 27 32 13 22 14 30 5
33 -17 6 -16 53 1 93 18 43 11 68 -20 68 -13 0 -24 -4 -24 -9z"/>
<path d="M8654 3600 c-5 -5 -18 -11 -29 -13 -11 -2 -35 -12 -54 -23 -114 -65
-125 -87 -46 -92 49 -3 51 -2 60 30 17 56 77 50 135 -13 l36 -40 13 62 c11 55
10 63 -5 80 -19 21 -92 27 -110 9z"/>
<path d="M11412 3520 c-26 -34 -27 -40 -9 -40 12 0 21 12 45 63 10 20 -17 3
-36 -23z"/>
<path d="M8607 3513 c-4 -3 -7 -27 -7 -53 0 -51 -17 -110 -31 -110 -5 0 -18 5
-28 12 -10 6 -26 8 -35 5 -21 -8 -54 -62 -67 -112 -6 -22 -28 -76 -49 -121
-54 -114 -99 -311 -125 -543 -7 -69 -18 -142 -24 -161 -18 -58 -14 -79 21
-100 25 -15 50 -19 107 -19 66 1 76 4 98 27 13 14 26 37 30 50 9 37 -25 128
-55 148 -23 15 -24 21 -19 78 2 33 15 96 28 140 20 65 32 87 73 130 57 59 93
138 102 223 4 42 17 76 45 124 22 36 39 70 39 75 0 6 10 20 21 33 49 53 -22
181 -100 181 -10 0 -21 -3 -24 -7z"/>
<path d="M16637 3441 c-33 -51 -42 -72 -34 -79 14 -12 72 67 87 117 14 49 -3
37 -53 -38z"/>
<path d="M8318 3483 c-8 -10 -34 -58 -59 -108 -32 -66 -60 -106 -104 -150 -90
-89 -152 -159 -241 -269 -95 -118 -114 -146 -114 -167 0 -8 -16 -23 -36 -33
-92 -43 -121 -112 -69 -160 27 -25 132 -43 149 -26 6 6 26 10 45 10 20 0 50 9
68 20 33 19 38 32 66 150 9 37 18 55 29 55 8 0 43 25 76 55 33 30 92 83 130
118 59 52 77 77 117 158 26 53 50 115 52 139 5 40 50 105 73 105 18 0 -44 102
-68 111 -39 15 -97 11 -114 -8z"/>
<path d="M16417 3413 c-36 -78 -60 -120 -108 -190 -79 -116 -101 -155 -91
-165 16 -16 71 64 212 304 28 48 56 90 61 94 12 7 -8 34 -25 34 -7 0 -29 -35
-49 -77z"/>
<path d="M16204 3438 c-9 -18 -29 -49 -44 -68 -15 -19 -35 -48 -44 -65 -21
-39 -28 -49 -113 -181 -64 -98 -126 -185 -180 -250 -10 -12 -27 -34 -38 -50
-52 -73 -184 -236 -242 -299 -35 -38 -72 -80 -83 -92 -25 -30 -52 -29 -81 2
-40 41 -70 25 -32 -17 15 -17 15 -20 -6 -39 -12 -12 -20 -27 -17 -34 3 -8 8
-41 12 -75 5 -47 10 -60 21 -56 8 3 11 1 8 -4 -10 -16 8 -12 40 10 31 21 105
28 105 10 0 -18 29 -11 40 9 5 11 10 46 10 79 0 50 -4 62 -21 74 l-21 14 26
52 c28 55 152 229 243 342 29 36 78 97 110 136 32 40 83 111 113 160 86 137
171 262 195 288 30 32 54 69 49 77 -11 19 -34 8 -50 -23z"/>
<path d="M18446 3447 c-3 -12 -31 -55 -61 -96 -31 -40 -54 -78 -52 -85 2 -6
12 3 22 19 11 17 43 60 72 97 29 37 53 69 53 71 0 3 -6 7 -14 10 -9 4 -16 -3
-20 -16z"/>
<path d="M19110 3451 c0 -21 -90 -131 -193 -235 -54 -55 -103 -107 -109 -115
-18 -24 90 79 222 211 113 113 117 118 99 134 -13 11 -19 13 -19 5z"/>
<path d="M8553 3427 c-18 -12 -33 -25 -33 -29 0 -10 40 -31 47 -25 4 5 23 78
19 76 0 0 -16 -10 -33 -22z"/>
<path d="M8767 3433 c-10 -16 13 -53 32 -53 18 0 19 3 10 30 -10 28 -32 40
-42 23z"/>
<path d="M8951 3423 c-12 -10 -26 -35 -30 -56 -8 -35 -7 -39 20 -52 15 -9 33
-24 39 -35 13 -24 30 -26 30 -5 0 9 9 41 20 72 18 53 19 58 3 75 -20 23 -55
23 -82 1z"/>
<path d="M9751 3426 c-17 -20 9 -33 54 -28 39 5 47 26 13 36 -36 9 -55 7 -67
-8z"/>
<path d="M18258 3388 c-18 -29 -35 -57 -38 -63 -3 -5 -14 -23 -24 -40 -11 -16
-35 -55 -54 -85 -111 -174 -285 -430 -320 -470 -12 -15 -29 -35 -36 -46 -10
-13 -26 -18 -55 -18 -27 1 -41 -3 -41 -11 0 -8 -5 -15 -11 -17 -13 -4 -5 -82
11 -108 8 -13 13 -12 41 4 20 12 42 17 62 13 49 -7 57 0 57 48 0 31 -6 50 -19
62 -20 18 -18 21 87 179 59 88 140 212 181 275 41 63 104 159 140 214 76 115
76 115 63 115 -6 0 -25 -24 -44 -52z"/>
<path d="M17663 3379 c-16 -28 -35 -63 -43 -77 -8 -15 -30 -53 -48 -86 -18
-32 -31 -61 -28 -64 8 -8 8 -8 61 93 26 50 63 109 81 131 30 38 34 54 13 54
-5 0 -21 -23 -36 -51z"/>
<path d="M17887 3383 c-18 -27 -69 -102 -112 -168 -103 -159 -108 -166 -216
-340 -163 -263 -172 -275 -209 -275 -43 0 -55 -15 -53 -66 1 -27 8 -53 17 -63
15 -14 19 -14 46 2 18 11 45 17 67 15 l38 -3 -3 50 c-2 28 -9 61 -16 75 -11
23 -6 35 49 130 58 99 112 186 195 310 20 30 69 107 108 170 39 63 87 133 107
154 19 22 35 43 35 48 0 20 -21 4 -53 -39z"/>
<path d="M9260 3392 c0 -6 -13 -24 -29 -41 -27 -29 -32 -30 -58 -19 -15 7 -39
20 -53 29 -54 36 -65 33 -79 -18 -7 -27 -15 -55 -18 -63 -3 -13 6 -16 50 -16
64 -1 119 -33 145 -85 9 -19 22 -34 27 -33 25 2 47 76 49 162 1 75 -1 87 -16
90 -10 2 -18 -1 -18 -6z"/>
<path d="M9850 3375 c0 -16 -7 -17 -61 -11 -122 12 -169 -45 -177 -216 -5
-103 -2 -109 38 -88 44 24 90 -15 90 -75 0 -14 6 -25 13 -25 21 0 57 30 57 48
0 10 15 62 34 116 19 54 32 104 30 111 -6 15 -77 64 -96 67 -7 1 12 4 42 7 50
5 55 8 58 32 2 14 -4 31 -12 39 -14 10 -16 10 -16 -5z"/>
<path d="M11256 3301 c-77 -105 -89 -135 -53 -137 20 -1 30 8 52 50 15 28 42
76 61 106 38 61 40 70 20 70 -8 0 -44 -40 -80 -89z"/>
<path d="M15397 3348 c-22 -37 -23 -43 -9 -47 20 -4 64 45 60 67 -6 30 -26 22
-51 -20z"/>
<path d="M10695 3358 c-73 -103 -102 -159 -102 -197 0 -39 1 -41 31 -41 43 0
51 8 70 70 10 30 27 79 38 108 16 42 18 55 8 67 -17 20 -26 19 -45 -7z"/>
<path d="M16793 3358 c-28 -32 -133 -186 -133 -195 0 -5 -8 -13 -18 -20 -23
-14 -147 -200 -232 -348 -113 -194 -187 -290 -232 -299 -29 -6 -36 -3 -60 26
-17 20 -28 26 -28 17 0 -8 5 -20 12 -27 9 -9 9 -17 -1 -36 -15 -27 -7 -171 10
-182 5 -3 21 4 35 15 28 22 66 26 127 12 l37 -9 0 84 c0 68 -3 84 -15 84 -8 0
-15 6 -15 13 0 35 80 196 153 308 9 14 14 29 10 32 -3 4 -2 7 4 7 6 0 27 27
48 60 21 33 42 60 46 60 5 0 9 5 9 11 0 11 7 20 84 119 150 192 214 279 209
284 -12 12 -30 6 -50 -16z"/>
<path d="M8772 3349 c-5 -11 -12 -19 -17 -18 -6 1 -21 -20 -35 -47 -14 -27
-32 -61 -42 -74 -9 -14 -22 -44 -29 -67 -11 -40 -10 -46 20 -108 17 -37 35
-83 40 -103 5 -20 21 -68 34 -107 14 -38 35 -113 47 -165 41 -180 84 -244 171
-260 97 -17 146 -20 129 -9 -12 8 -9 9 12 5 15 -3 30 -2 33 4 4 6 -1 7 -12 4
-17 -5 -17 -5 0 9 27 22 17 41 -68 137 -90 101 -154 223 -185 353 -29 124 -28
263 3 322 5 10 10 33 9 49 -1 22 2 26 8 16 7 -11 9 -10 7 7 0 12 -4 20 -7 18
-3 -2 -25 10 -49 26 -52 35 -59 35 -69 8z"/>
<path d="M16572 3348 c-7 -7 -12 -16 -12 -20 0 -5 -16 -30 -35 -58 -22 -31
-31 -52 -24 -56 6 -4 14 -2 18 3 67 97 83 125 74 134 -5 5 -14 4 -21 -3z"/>
<path d="M9460 3343 c-30 -6 -60 -31 -60 -50 0 -8 -11 -29 -25 -47 -27 -35
-34 -93 -12 -101 6 -3 34 -7 60 -9 27 -2 56 -11 66 -20 27 -25 44 -20 37 10
-4 16 -1 35 8 49 10 15 13 35 9 58 -3 23 0 47 11 67 8 18 13 36 10 41 -5 9
-59 10 -104 2z"/>
<path d="M15579 3213 c-107 -149 -122 -174 -112 -184 9 -9 66 60 93 111 7 13
37 57 66 97 52 69 63 93 46 93 -5 0 -46 -53 -93 -117z"/>
<path d="M13996 3273 c-20 -21 -36 -41 -36 -45 0 -15 17 -8 40 17 13 14 29 25
37 25 7 0 13 9 13 20 0 29 -13 25 -54 -17z"/>
<path d="M9997 3256 c-17 -25 -17 -25 14 -42 45 -23 79 -27 79 -10 0 8 -6 17
-12 19 -7 3 -1 6 15 6 53 2 26 39 -34 46 -39 5 -46 3 -62 -19z"/>
<path d="M19764 3246 c-27 -18 -82 -55 -121 -80 -40 -26 -73 -49 -73 -52 0 -8
145 80 244 148 6 4 8 9 5 12 -3 3 -28 -9 -55 -28z"/>
<path d="M17962 3218 c-82 -110 -141 -202 -136 -210 3 -5 34 31 67 81 34 50
75 109 91 131 16 22 26 43 23 46 -3 3 -23 -18 -45 -48z"/>
<path d="M15113 3239 c-6 -6 -9 -18 -6 -26 5 -11 9 -11 24 3 11 9 19 21 19 26
0 12 -24 10 -37 -3z"/>
<path d="M9943 3222 c-20 -3 -22 -9 -20 -66 1 -35 -3 -69 -9 -77 -16 -20 -38
-114 -31 -132 3 -8 21 -18 39 -22 18 -4 42 -13 54 -20 17 -11 24 -10 44 5 20
15 25 29 28 83 4 56 1 71 -23 110 -14 25 -27 59 -27 75 -1 32 -22 49 -55 44z"/>
<path d="M16480 3194 c0 -8 5 -12 10 -9 6 3 10 10 10 16 0 5 -4 9 -10 9 -5 0
-10 -7 -10 -16z"/>
<path d="M17336 3185 c-10 -15 -15 -32 -13 -38 2 -7 12 3 21 21 21 41 15 53
-8 17z"/>
<path d="M11795 3100 c-98 -99 -110 -116 -95 -125 18 -11 196 183 188 206 -2
6 -44 -30 -93 -81z"/>
<path d="M16445 3157 c-9 -15 -14 -31 -10 -36 3 -6 0 -9 -8 -6 -19 8 -72 -75
-56 -89 8 -8 13 -8 16 0 2 6 24 39 50 73 32 43 43 65 35 73 -7 7 -15 2 -27
-15z"/>
<path d="M18629 3151 c-23 -23 -32 -41 -21 -41 10 0 46 49 40 55 -2 1 -10 -5
-19 -14z"/>
<path d="M14447 3115 c-31 -39 -33 -45 -13 -45 20 0 61 59 50 70 -6 6 -21 -5
-37 -25z"/>
<path d="M11117 3119 c-8 -13 -18 -41 -21 -62 -4 -22 -18 -47 -32 -59 -13 -12
-24 -27 -24 -34 0 -6 -6 -17 -14 -23 -10 -8 -22 -5 -51 14 -20 15 -39 24 -41
22 -2 -2 3 -21 11 -41 9 -21 13 -47 9 -58 -5 -18 -3 -20 15 -15 11 3 21 2 21
-3 0 -4 13 -13 29 -19 36 -15 101 -4 108 18 2 9 9 24 14 33 7 13 4 21 -10 29
-17 11 -14 16 31 59 47 45 49 48 36 76 -17 39 -35 57 -49 48 -7 -4 -9 -3 -6 2
3 6 2 16 -3 23 -6 11 -11 8 -23 -10z"/>
<path d="M14946 3030 c-77 -90 -83 -100 -67 -100 14 0 162 178 152 184 -5 3
-43 -35 -85 -84z"/>
<path d="M19475 3054 c-44 -30 -108 -82 -141 -115 -41 -41 -73 -63 -95 -68
-32 -6 -34 -9 -37 -55 l-3 -48 28 7 c33 9 40 9 71 0 21 -7 22 -5 22 43 0 28
-4 52 -10 54 -22 7 73 107 155 163 74 51 105 76 93 75 -2 0 -39 -25 -83 -56z"/>
<path d="M10802 3066 c-6 -14 -22 -28 -36 -32 -18 -4 -25 -14 -28 -40 -4 -30
0 -37 28 -54 41 -26 84 -27 77 -2 -3 13 4 22 24 32 15 7 31 13 34 12 7 -1 2
88 -5 95 -2 3 -22 7 -43 10 -34 4 -40 2 -51 -21z"/>
<path d="M15172 3054 c-12 -19 -20 -40 -16 -45 9 -15 64 50 57 68 -8 20 -16
16 -41 -23z"/>
<path d="M17210 2988 c-36 -56 -69 -106 -75 -112 -19 -22 -71 -91 -88 -118
-20 -33 -22 -48 -4 -48 21 0 247 339 247 371 0 23 -20 0 -80 -93z"/>
<path d="M13070 2988 c-36 -39 -70 -76 -75 -82 -64 -70 -94 -115 -82 -124 9
-7 21 2 47 36 45 61 135 170 166 203 13 14 24 29 24 32 0 18 -21 1 -80 -65z"/>
<path d="M14380 3040 c-16 -30 -2 -43 22 -21 11 11 17 24 13 30 -10 17 -23 13
-35 -9z"/>
<path d="M18754 3052 c-5 -4 -32 -34 -60 -67 -55 -67 -100 -120 -126 -147 -10
-10 -31 -18 -48 -18 -25 0 -30 -4 -36 -35 -9 -50 2 -89 24 -80 9 4 40 10 69
13 56 5 61 11 55 70 -3 23 -9 32 -23 32 -17 0 -17 3 -6 28 6 15 14 29 17 32
12 12 151 180 148 180 -2 0 -8 -4 -14 -8z"/>
<path d="M13430 3021 c-5 -11 -6 -22 -1 -25 11 -7 43 28 34 37 -11 12 -22 8
-33 -12z"/>
<path d="M17452 3028 c-14 -14 -16 -38 -4 -38 5 0 14 11 20 25 12 26 4 33 -16
13z"/>
<path d="M16082 2894 c-57 -75 -100 -139 -97 -143 9 -8 79 71 153 174 103 143
55 116 -56 -31z"/>
<path d="M12709 2983 c-61 -68 -129 -161 -129 -177 0 -19 11 -20 29 -3 11 10
13 10 7 0 -4 -7 -5 -13 -2 -13 3 0 32 42 66 94 34 52 68 100 76 106 18 16 18
30 0 30 -7 0 -29 -17 -47 -37z"/>
<path d="M16330 2980 c-30 -59 -141 -217 -185 -264 -6 -6 -37 -54 -69 -106
-74 -121 -81 -128 -130 -141 -22 -6 -53 -20 -68 -31 -26 -18 -28 -24 -28 -94
0 -59 3 -76 16 -81 9 -3 19 0 24 6 13 23 80 39 117 29 55 -15 58 -10 54 82 -2
63 -7 87 -21 102 -18 20 -18 21 15 49 18 16 37 29 43 29 13 0 47 66 57 110 4
19 33 68 65 110 59 77 150 218 150 232 0 21 -22 4 -40 -32z"/>
<path d="M15435 3000 c-3 -5 -1 -10 4 -10 6 0 11 5 11 10 0 6 -2 10 -4 10 -3
0 -8 -4 -11 -10z"/>
<path d="M13720 2981 c0 -5 -6 -16 -12 -23 -18 -19 -58 -76 -58 -83 0 -16 21
0 46 38 16 23 35 48 42 55 16 17 15 22 -3 22 -8 0 -15 -4 -15 -9z"/>
<path d="M14317 2953 c-36 -51 -21 -65 20 -17 36 43 40 54 20 54 -8 0 -26 -17
-40 -37z"/>
<path d="M17779 2953 c-7 -16 -28 -49 -46 -75 -18 -26 -29 -49 -24 -52 7 -5
101 132 101 148 0 16 -18 3 -31 -21z"/>
<path d="M13327 2889 c-32 -39 -57 -78 -55 -87 2 -10 24 11 66 62 34 43 62 82
62 87 0 21 -19 5 -73 -62z"/>
<path d="M15382 2926 c-24 -35 -27 -46 -13 -46 16 0 54 61 45 70 -5 5 -19 -5
-32 -24z"/>
<path d="M18101 2925 c-89 -163 -133 -222 -174 -230 -46 -10 -57 -23 -57 -65
0 -44 8 -70 22 -70 5 0 7 3 5 8 -3 4 24 8 60 9 36 1 71 7 79 14 22 18 18 95
-6 112 -25 17 -23 22 48 145 29 51 51 99 49 105 -2 7 -14 -6 -26 -28z"/>
<path d="M12254 2873 c-27 -43 -72 -111 -101 -150 -49 -67 -68 -102 -42 -76 7
7 20 8 33 4 11 -4 26 -7 33 -7 17 1 53 46 59 75 18 78 28 106 54 152 32 54 35
65 21 74 -5 3 -31 -30 -57 -72z"/>
<path d="M15077 2903 c-42 -68 -29 -87 14 -20 33 50 38 68 20 67 -3 0 -19 -21
-34 -47z"/>
<path d="M17371 2896 c-23 -36 -27 -56 -11 -56 8 0 50 70 50 85 0 16 -21 1
-39 -29z"/>
<path d="M11964 2884 c-16 -20 -34 -42 -39 -48 -6 -6 -26 -33 -45 -61 -36 -50
-70 -93 -103 -127 -29 -31 -68 -20 -93 26 -21 38 -22 38 -34 16 -6 -12 -9 -32
-5 -44 18 -59 22 -95 10 -100 -8 -3 -16 -36 -20 -87 -9 -102 -2 -110 85 -102
52 5 60 3 72 -16 13 -21 52 -29 62 -13 3 5 6 45 8 88 2 66 0 84 -14 98 -10 10
-18 23 -18 30 0 18 33 46 53 46 10 0 17 8 17 20 0 12 -7 20 -16 20 -13 0 -15
7 -10 33 4 17 8 42 10 54 1 13 18 42 37 65 35 44 80 104 93 126 17 29 -24 9
-50 -24z m-193 -284 c27 0 39 -4 39 -14 0 -28 -74 -31 -107 -4 -16 13 -5 31
14 24 8 -3 32 -6 54 -6z"/>
<path d="M13991 2901 c-8 -14 -7 -20 2 -24 14 -5 40 27 30 37 -11 11 -22 6
-32 -13z"/>
<path d="M14840 2894 c0 -8 5 -12 10 -9 6 3 10 10 10 16 0 5 -4 9 -10 9 -5 0
-10 -7 -10 -16z"/>
<path d="M15587 2879 c-15 -17 -24 -35 -21 -41 7 -12 64 40 64 59 0 21 -14 15
-43 -18z"/>
<path d="M14217 2818 c-52 -69 -66 -108 -27 -73 33 30 100 134 91 140 -6 3
-34 -27 -64 -67z"/>
<path d="M14454 2770 c-53 -67 -94 -123 -91 -127 10 -10 32 13 112 117 71 94
94 130 81 130 -3 0 -49 -54 -102 -120z"/>
<path d="M11170 2863 c1 -28 26 -68 34 -54 4 6 12 9 17 6 17 -11 9 25 -11 45
-25 25 -40 26 -40 3z"/>
<path d="M14797 2863 c-4 -3 -7 -13 -7 -21 0 -12 3 -12 15 -2 8 7 15 16 15 21
0 11 -14 12 -23 2z"/>
<path d="M15234 2723 c-60 -80 -115 -152 -121 -159 -16 -16 -17 -34 -2 -34 17
0 91 80 119 130 14 24 49 77 78 118 30 43 49 79 44 84 -5 5 -55 -55 -118 -139z"/>
<path d="M13946 2844 c-9 -25 4 -37 19 -17 13 18 11 33 -5 33 -4 0 -11 -7 -14
-16z"/>
<path d="M11621 2804 c-27 -45 -26 -54 4 -54 15 0 25 6 25 14 0 7 3 28 6 45 9
42 -9 40 -35 -5z"/>
<path d="M13548 2756 c-38 -46 -68 -87 -68 -90 0 -3 6 -6 14 -6 14 0 136 153
136 171 0 21 -19 4 -82 -75z"/>
<path d="M17297 2788 c-16 -26 -22 -47 -16 -52 10 -11 8 -13 42 38 24 37 27
56 7 56 -4 0 -19 -19 -33 -42z"/>
<path d="M10887 2813 c-4 -3 -7 -23 -7 -43 0 -19 -7 -62 -15 -93 -22 -86 -24
-84 46 -79 56 4 63 2 85 -22 35 -37 68 -34 87 7 19 39 26 152 11 167 -6 6 -36
15 -66 19 -30 4 -70 17 -90 29 -39 24 -42 25 -51 15z"/>
<path d="M14660 2704 c-52 -64 -126 -149 -165 -190 -38 -41 -87 -92 -107 -114
-45 -48 -65 -50 -103 -10 -19 19 -32 27 -39 20 -6 -6 -4 -15 5 -26 11 -14 11
-18 -4 -29 -16 -11 -17 -24 -11 -103 7 -97 20 -118 54 -87 29 27 74 29 126 6
26 -12 51 -18 55 -14 4 5 11 50 15 101 6 81 5 92 -10 92 -23 0 -20 37 4 52 11
7 20 18 20 25 0 16 -12 17 -28 1 -23 -23 -12 -1 14 28 14 16 70 85 124 154 54
69 114 141 134 159 38 36 45 51 24 51 -7 -1 -56 -53 -108 -116z"/>
<path d="M15499 2776 c-39 -44 -162 -207 -218 -287 -66 -97 -121 -122 -163
-74 -24 28 -43 24 -28 -6 8 -15 6 -25 -12 -49 l-22 -30 19 -75 c10 -41 22 -75
27 -75 5 0 7 4 4 8 -5 8 -2 9 80 18 39 4 58 2 78 -11 14 -10 27 -15 27 -11 1
3 2 10 3 15 0 5 4 13 9 17 4 4 7 33 7 65 0 55 -15 89 -41 89 -5 0 -9 7 -9 15
0 8 4 15 9 15 5 0 11 14 15 31 3 17 19 47 35 67 15 21 34 48 41 62 11 22 79
111 165 217 38 47 16 46 -26 -1z"/>
<path d="M11440 2759 c0 -23 7 -47 15 -55 8 -9 15 -11 15 -5 0 5 9 13 20 16
25 8 26 32 1 40 -10 3 -21 15 -24 25 -9 35 -27 21 -27 -21z"/>
<path d="M17667 2777 c-8 -13 -12 -29 -8 -36 7 -10 14 -1 39 52 8 18 -17 5
-31 -16z"/>
<path d="M11246 2781 c-7 -11 38 -31 71 -31 31 0 26 9 -7 15 -13 3 -28 9 -34
15 -12 12 -23 13 -30 1z"/>
<path d="M14993 2764 c-10 -14 -42 -55 -70 -92 -39 -49 -49 -68 -37 -70 25 -6
65 27 85 71 11 23 31 59 44 80 19 28 22 37 11 37 -8 0 -23 -12 -33 -26z"/>
<path d="M12527 2732 c-27 -16 -52 -71 -45 -94 3 -7 13 1 23 17 10 17 27 43
37 58 24 35 21 40 -15 19z"/>
<path d="M13844 2712 c-17 -20 -38 -51 -48 -69 -9 -18 -24 -37 -35 -42 -10 -6
-43 -48 -74 -94 -90 -135 -135 -162 -189 -112 -43 40 -72 31 -48 -15 7 -13 6
-19 -5 -24 -12 -4 -15 -26 -15 -102 0 -95 0 -96 23 -89 48 17 124 17 155 1 17
-9 36 -16 42 -16 15 0 13 187 -2 193 -9 4 -6 11 9 24 11 10 23 27 25 37 1 11
9 21 16 24 11 3 12 0 3 -17 -7 -11 -8 -21 -2 -21 20 0 22 34 2 50 -20 15 -20
16 15 60 107 134 176 232 168 240 -5 5 -22 -7 -40 -28z"/>
<path d="M10236 2718 c-12 -47 -5 -83 33 -163 22 -45 43 -95 47 -111 11 -45
33 -84 49 -84 22 0 28 20 11 39 -33 36 -57 132 -59 236 l-2 100 -36 3 c-31 3
-37 -1 -43 -20z"/>
<path d="M15943 2718 c-11 -13 -45 -57 -76 -98 -30 -41 -80 -101 -109 -132
-62 -66 -89 -73 -136 -33 -35 30 -64 35 -39 7 20 -22 22 -43 6 -59 -9 -9 -9
-23 0 -57 6 -25 11 -58 11 -75 0 -37 15 -42 63 -23 26 10 55 13 91 8 50 -5 54
-4 60 17 7 28 7 95 0 124 -3 11 -15 24 -27 27 -20 5 -20 6 -4 24 9 10 17 23
17 29 0 5 9 18 20 28 11 10 20 22 20 27 0 12 85 143 110 171 18 18 26 37 17
37 -2 0 -13 -10 -24 -22z"/>
<path d="M16854 2732 c-14 -9 -56 -103 -49 -110 9 -10 28 17 47 65 19 50 19
56 2 45z"/>
<path d="M11141 2648 c-19 -124 -22 -113 34 -114 66 -1 90 -10 109 -39 9 -14
25 -25 36 -25 28 0 52 88 42 155 -7 47 -9 50 -37 48 -26 -2 -67 11 -117 38
-44 23 -55 13 -67 -63z"/>
<path d="M18116 2695 c-22 -16 -21 -74 1 -82 9 -4 29 1 44 9 15 9 37 14 47 11
16 -4 20 2 24 26 2 17 2 34 -1 39 -9 13 -96 11 -115 -3z"/>
<path d="M17002 2687 c-20 -27 -22 -47 -3 -47 23 0 46 46 26 54 -7 2 -18 -1
-23 -7z"/>
<path d="M4053 2628 c4 -28 11 -56 17 -62 5 -5 10 -43 10 -84 0 -67 1 -72 16
-58 8 9 20 16 25 16 5 0 7 41 3 103 -7 107 -19 137 -57 137 -18 0 -19 -5 -14
-52z"/>
<path d="M17584 2649 c-15 -16 -27 -20 -56 -16 -28 4 -35 2 -31 -9 3 -8 0 -14
-6 -14 -14 0 -14 -48 0 -89 11 -32 43 -43 52 -18 2 7 22 12 53 12 54 -1 66 8
59 42 -3 13 -7 34 -10 48 -3 15 -12 25 -22 25 -13 0 -14 3 -5 12 7 7 12 16 12
20 0 15 -27 8 -46 -13z"/>
<path d="M10065 2650 c-3 -6 -3 -31 1 -58 5 -36 15 -54 42 -79 59 -54 87 -34
37 25 -14 17 -35 51 -46 76 -21 49 -24 52 -34 36z"/>
<path d="M11406 2622 c-2 -4 -7 -39 -11 -78 -10 -94 1 -114 59 -114 29 0 48
-6 60 -19 22 -24 53 -32 64 -17 14 18 44 188 35 196 -34 30 -193 55 -207 32z"/>
<path d="M13399 2583 c-82 -91 -83 -93 -64 -107 21 -15 55 -10 55 8 0 6 16 35
35 64 32 47 38 72 16 72 -4 0 -23 -17 -42 -37z"/>
<path d="M12037 2570 c-33 -34 -45 -37 -62 -13 -16 21 -35 9 -35 -23 0 -15 -6
-24 -16 -24 -11 0 -15 -6 -11 -20 3 -11 2 -18 -3 -15 -11 7 -19 -158 -8 -170
5 -6 15 -5 28 3 36 22 96 26 128 7 19 -11 39 -15 55 -11 21 5 27 15 41 76 8
38 13 77 10 85 -4 8 1 17 9 21 9 3 13 12 10 20 -3 8 -10 11 -16 7 -6 -4 -8 0
-4 10 4 11 1 17 -7 17 -7 0 -16 14 -19 30 -6 26 -11 30 -39 30 -24 0 -41 -9
-61 -30z"/>
<path d="M16946 2579 c-18 -21 -32 -24 -41 -9 -9 15 -25 12 -25 -5 0 -8 -7
-15 -15 -15 -11 0 -15 -11 -15 -42 0 -24 -3 -59 -6 -80 -5 -30 -3 -37 12 -40
11 -2 34 2 52 9 27 11 41 12 69 2 44 -14 54 -5 60 55 7 55 0 85 -27 116 -26
30 -43 33 -64 9z"/>
<path d="M7621 2544 c-25 -31 -27 -66 -6 -102 8 -15 26 -56 39 -92 14 -36 38
-97 54 -136 26 -62 31 -90 42 -245 16 -222 17 -548 1 -613 -11 -46 -10 -50 16
-84 15 -20 31 -41 36 -46 4 -7 14 -2 27 14 15 18 18 20 14 6 -5 -13 -3 -17 7
-14 12 4 14 93 14 572 l0 568 43 39 c26 22 42 45 40 55 -2 9 -20 31 -41 48
-34 27 -47 31 -110 33 -38 1 -75 7 -81 13 -20 20 -73 11 -95 -16z"/>
<path d="M4162 2525 c0 -16 2 -22 5 -12 2 9 2 23 0 30 -3 6 -5 -1 -5 -18z"/>
<path d="M12500 2528 c0 -12 12 -34 26 -49 l26 -27 -21 -14 c-11 -7 -21 -20
-21 -28 0 -9 -5 -21 -10 -26 -6 -6 -10 -41 -8 -80 l3 -69 93 2 c81 2 96 0 115
-17 21 -20 43 -25 71 -14 26 10 19 56 -14 94 -34 41 -36 49 -14 65 15 11 15
14 0 43 -14 28 -19 30 -50 25 -45 -7 -86 3 -86 22 0 8 5 15 11 15 5 0 7 5 4
10 -4 7 -11 6 -20 -2 -46 -41 -45 -41 -45 0 0 25 -7 45 -18 55 -26 23 -42 21
-42 -5z"/>
<path d="M16731 2529 c-16 -13 -33 -18 -48 -14 -13 3 -34 3 -48 -1 -21 -5 -25
-12 -25 -44 0 -37 16 -98 30 -113 4 -4 23 1 42 13 35 20 37 20 73 3 36 -17 37
-17 51 2 8 10 14 42 14 72 0 45 -4 58 -26 78 -32 30 -32 30 -63 4z"/>
<path d="M12194 2529 c-3 -5 6 -19 21 -30 l26 -21 -24 -22 c-19 -18 -25 -37
-31 -92 -4 -39 -4 -78 0 -87 7 -20 40 -23 47 -4 2 7 23 12 53 12 40 0 57 -6
82 -27 18 -15 39 -25 46 -22 24 9 67 201 47 213 -6 4 -9 20 -8 36 2 28 1 29
-38 26 -22 -1 -44 -7 -49 -12 -13 -12 -61 -12 -84 0 -51 28 -82 39 -88 30z"/>
<path d="M16437 2534 c-4 -4 -4 -17 -1 -30 6 -23 5 -23 -25 -13 -55 19 -61 10
-61 -90 0 -51 4 -93 10 -96 6 -4 42 6 80 21 67 26 71 26 89 10 11 -10 28 -16
38 -14 15 3 18 14 20 76 1 65 -2 76 -23 98 -14 13 -33 24 -44 24 -10 0 -22 5
-25 10 -7 11 -48 14 -58 4z"/>
<path d="M12692 2524 c4 -3 -3 -15 -15 -25 l-22 -18 28 -2 c15 -1 33 -2 40 -3
23 -2 13 36 -13 46 -13 5 -21 6 -18 2z"/>
<path d="M14740 2445 c-52 -52 -92 -85 -105 -85 -12 1 -33 19 -54 47 l-34 46
-13 -24 c-7 -13 -8 -25 -3 -27 14 -5 11 -49 -5 -65 -20 -19 -10 -183 12 -192
8 -3 20 -1 26 4 24 20 84 23 117 7 72 -36 92 -12 83 93 -6 57 -11 72 -25 76
-26 8 -24 17 11 50 34 33 41 58 8 29 -27 -24 26 56 65 99 15 15 21 27 14 27
-7 0 -50 -38 -97 -85z"/>
<path d="M17860 2512 c0 -15 28 -47 35 -40 8 8 -13 48 -25 48 -6 0 -10 -4 -10
-8z"/>
<path d="M11016 2493 c-20 -72 -10 -138 29 -199 7 -11 19 -50 26 -85 13 -66
35 -108 57 -109 17 0 15 15 -10 68 -21 42 -23 62 -23 195 l0 147 -37 0 c-26 0
-38 -5 -42 -17z"/>
<path d="M14995 2439 c-81 -71 -83 -72 -142 -54 -18 6 -22 2 -28 -23 -3 -17
-13 -36 -21 -43 -19 -15 -20 -165 -1 -172 6 -2 28 5 47 17 28 17 51 21 113 21
l77 -1 0 71 c0 48 -5 78 -16 93 -15 21 -15 25 0 41 9 10 16 23 16 29 0 6 18
26 40 43 45 37 50 49 18 49 -14 0 -55 -28 -103 -71z"/>
<path d="M17110 2463 c0 -28 3 -34 16 -29 9 3 36 6 60 6 40 0 44 2 44 25 0 17
-6 26 -17 27 -10 0 -37 2 -60 4 l-43 3 0 -36z"/>
<path d="M17664 2485 c8 -21 69 -115 73 -111 6 6 -59 126 -68 126 -6 0 -8 -7
-5 -15z"/>
<path d="M13160 2461 c0 -11 5 -23 11 -27 16 -9 30 18 17 33 -15 19 -28 16
-28 -6z"/>
<path d="M13262 2448 c-16 -16 -15 -28 2 -28 19 0 27 13 17 28 -5 9 -10 9 -19
0z"/>
<path d="M17470 2445 c0 -25 39 -95 87 -157 50 -65 65 -77 27 -21 -14 20 -42
72 -62 114 -36 76 -52 95 -52 64z"/>
<path d="M17924 2413 c18 -36 45 -70 46 -60 0 13 -44 87 -53 87 -4 0 -1 -12 7
-27z"/>
<path d="M12887 2380 l6 -50 -32 0 c-27 0 -31 -4 -31 -26 0 -26 26 -82 45 -97
6 -4 20 -5 33 -2 12 3 22 2 22 -2 0 -5 29 -9 65 -10 52 -2 65 0 65 12 0 8 8
15 19 15 32 0 39 21 34 91 l-6 67 -84 11 c-46 5 -94 17 -106 26 -33 23 -37 19
-30 -35z"/>
<path d="M11310 2395 c-14 -37 -12 -93 6 -140 21 -56 54 -164 61 -198 5 -28
48 -65 60 -53 4 4 -5 30 -19 60 -25 51 -54 198 -60 306 -4 54 -31 69 -48 25z"/>
<path d="M14196 2401 c-11 -12 -17 -23 -15 -25 8 -8 41 23 37 34 -2 7 -11 3
-22 -9z"/>
<path d="M13191 2396 l-43 -10 7 -101 c4 -55 9 -103 12 -107 7 -13 30 -9 43 7
16 20 100 20 126 0 10 -8 27 -15 37 -15 15 0 17 11 17 86 0 68 -3 89 -16 99
-14 10 -12 14 17 28 19 9 30 17 24 18 -38 7 -188 3 -224 -5z"/>
<path d="M18180 2373 c0 -6 8 -17 18 -24 16 -13 16 -13 2 6 -8 11 -16 22 -17
24 -2 2 -3 0 -3 -6z"/>
<path d="M17030 2357 c0 -8 8 -21 18 -30 18 -16 18 -15 14 13 -4 29 -32 44
-32 17z"/>
<path d="M16825 2349 c-4 -6 1 -17 11 -24 28 -21 35 -18 22 10 -12 27 -23 31
-33 14z"/>
<path d="M17750 2340 c6 -11 13 -20 16 -20 2 0 0 9 -6 20 -6 11 -13 20 -16 20
-2 0 0 -9 6 -20z"/>
<path d="M8488 2315 c-13 -19 -30 -37 -38 -40 -9 -3 -23 -18 -33 -34 -9 -16
-32 -42 -50 -56 -47 -40 -50 -50 -28 -94 18 -35 26 -40 73 -49 196 -37 319
-73 353 -103 11 -9 37 -24 58 -33 20 -8 61 -30 90 -49 28 -19 75 -47 102 -63
80 -46 82 -48 127 -79 79 -55 143 -105 207 -163 74 -66 81 -71 74 -42 -4 14 2
27 18 40 13 11 30 24 37 30 22 19 13 38 -27 53 -22 9 -66 40 -99 69 -84 75
-309 229 -387 265 -38 18 -134 76 -212 130 -56 39 -143 135 -172 191 -19 35
-44 62 -58 62 -7 0 -23 -16 -35 -35z"/>
<path d="M11563 2276 c3 -61 36 -199 51 -213 14 -15 23 11 15 44 -5 21 -9 81
-9 134 l0 97 -31 4 -30 5 4 -71z"/>
<path d="M14136 2339 c-10 -7 -35 -8 -58 -5 -28 5 -47 2 -69 -11 -30 -18 -39
-43 -15 -43 7 0 19 -7 26 -15 10 -12 31 -15 94 -13 l81 3 -2 33 c-1 30 -18 62
-32 62 -3 0 -14 -5 -25 -11z"/>
<path d="M8586 2317 c3 -10 9 -15 12 -12 3 3 0 11 -7 18 -10 9 -11 8 -5 -6z"/>
<path d="M10574 2315 c-19 -14 -19 -15 2 -52 27 -46 54 -56 54 -19 0 14 -8 39
-18 56 -17 27 -20 28 -38 15z"/>
<path d="M16584 2293 c-9 -14 3 -34 69 -112 95 -114 125 -145 73 -76 -60 82
-89 128 -102 165 -14 40 -25 47 -40 23z"/>
<path d="M16315 2291 c-9 -16 3 -48 22 -55 25 -10 26 -1 5 34 -12 19 -23 27
-27 21z"/>
<path d="M11856 2281 c-3 -5 -7 -35 -8 -67 -2 -47 3 -70 23 -109 14 -27 34
-76 44 -108 18 -59 37 -79 57 -59 7 7 4 19 -10 39 -28 40 -63 164 -66 235 -1
44 -6 62 -18 69 -10 5 -19 6 -22 0z"/>
<path d="M16876 2275 c4 -8 10 -15 15 -15 4 0 6 7 3 15 -4 8 -10 15 -15 15 -4
0 -6 -7 -3 -15z"/>
<path d="M17780 2286 c0 -2 8 -10 18 -17 15 -13 16 -12 3 4 -13 16 -21 21 -21
13z"/>
<path d="M12127 2256 c-28 -21 -22 -86 16 -168 18 -40 42 -93 52 -118 10 -25
27 -54 38 -65 l20 -20 -6 20 c-4 11 -20 61 -37 110 -17 50 -34 122 -37 162 -6
79 -18 99 -46 79z"/>
<path d="M15824 2236 c-9 -22 37 -90 116 -173 41 -43 94 -100 118 -127 23 -27
42 -46 42 -41 0 7 -39 66 -50 75 -13 10 -161 211 -181 245 -22 37 -36 44 -45
21z"/>
<path d="M16910 2232 c0 -4 11 -23 25 -42 30 -41 33 -34 4 14 -21 36 -29 43
-29 28z"/>
<path d="M13996 2221 c-4 -6 -5 -19 -2 -29 5 -14 18 -18 73 -19 38 0 81 -2 98
-4 32 -4 43 14 25 41 -12 19 -184 28 -194 11z"/>
<path d="M16110 2179 c0 -14 34 -59 45 -59 12 0 3 21 -20 47 -17 20 -24 23
-25 12z"/>
<path d="M15307 2174 c-16 -17 9 -79 46 -113 22 -20 43 -37 48 -39 21 -8 6 29
-26 68 -19 23 -35 53 -35 66 0 22 -18 32 -33 18z"/>
<path d="M13376 2142 c-8 -14 29 -121 72 -206 46 -92 65 -88 24 6 -16 34 -32
77 -36 93 -10 44 -40 115 -48 115 -4 0 -9 -4 -12 -8z"/>
<path d="M16990 2110 c6 -11 13 -20 16 -20 2 0 0 9 -6 20 -6 11 -13 20 -16 20
-2 0 0 -9 6 -20z"/>
<path d="M14448 2095 c-10 -23 -8 -29 24 -63 35 -37 100 -141 113 -181 3 -11
11 -21 17 -21 5 0 8 6 5 13 -37 85 -69 180 -75 221 -7 48 -9 51 -40 54 -26 3
-34 -1 -44 -23z"/>
<path d="M16760 2046 c0 -2 7 -9 15 -16 13 -11 14 -10 9 4 -5 14 -24 23 -24
12z"/>
<path d="M9695 1353 c34 -101 36 -103 30 -38 -8 85 -15 105 -35 105 -17 0 -16
-4 5 -67z"/>
<path d="M9790 1109 c0 -11 6 -33 14 -47 8 -15 31 -62 52 -104 20 -43 46 -85
56 -95 10 -9 18 -27 18 -40 0 -16 5 -23 13 -20 6 2 11 10 10 16 -2 6 2 11 7
11 16 0 12 22 -9 44 -26 28 -111 156 -111 167 0 16 -35 89 -42 89 -5 0 -8 -9
-8 -21z"/>
<path d="M7656 1043 c-9 -85 -18 -110 -78 -205 -27 -42 -54 -93 -59 -112 -5
-19 -27 -58 -49 -87 l-38 -51 26 -24 c14 -14 30 -23 36 -21 9 3 32 89 52 194
2 12 12 30 22 40 25 25 57 81 71 125 7 20 19 42 28 50 15 11 16 11 9 -7 -4
-11 -16 -43 -27 -71 -11 -28 -35 -69 -55 -92 l-36 -42 46 0 c44 0 69 -13 44
-23 -8 -3 -6 -6 5 -6 12 -1 17 7 17 27 1 15 9 63 18 107 16 74 19 80 41 77 30
-5 78 41 91 86 10 36 6 52 -11 52 -6 0 -29 9 -52 19 -24 11 -54 22 -69 26 -25
6 -26 6 -32 -62z"/>
<path d="M9953 788 c-18 -9 -21 -16 -16 -42 5 -31 20 -47 57 -68 17 -9 18 -8
12 13 -3 13 -9 43 -12 67 -7 45 -8 46 -41 30z"/>
<path d="M7557 713 c-4 -3 -7 -19 -7 -35 0 -27 -20 -104 -41 -155 -6 -17 -5
-23 5 -23 8 0 17 -7 20 -16 3 -9 15 -14 28 -12 18 2 24 12 30 48 4 25 12 54
17 65 5 11 14 40 20 65 9 38 8 47 -6 58 -18 13 -55 16 -66 5z"/>
<path d="M9745 602 c-3 -37 -13 -86 -22 -110 -13 -39 -13 -45 1 -67 18 -27 38
-32 54 -12 22 26 44 110 37 144 -3 19 -2 40 4 47 13 16 3 30 -36 49 l-31 17
-7 -68z"/>
<path d="M9837 538 c1 -29 2 -56 3 -60 0 -5 13 -8 28 -8 25 0 31 6 46 43 9 23
16 44 17 46 0 3 -22 11 -48 17 -26 7 -48 13 -48 14 0 0 1 -24 2 -52z"/>
<path d="M7377 513 c-16 -27 -44 -59 -63 -73 -47 -34 -64 -50 -64 -61 0 -13
38 -49 51 -49 6 0 30 20 55 45 24 25 51 45 61 45 11 0 25 15 37 39 16 34 16
42 4 67 -21 46 -49 42 -81 -13z"/>
<path d="M7228 465 c-37 -25 -73 -45 -81 -45 -7 0 -22 -7 -33 -15 -18 -14 -17
-15 11 -9 17 4 46 15 66 25 20 10 45 15 57 12 32 -8 57 12 57 46 0 17 -2 31
-5 31 -3 0 -35 -21 -72 -45z"/>
<path d="M7475 460 c-8 -16 -15 -51 -15 -79 0 -51 14 -76 25 -42 3 10 19 29
35 41 36 28 38 59 7 88 -30 28 -33 28 -52 -8z"/>
<path d="M9813 451 c-2 -9 -9 -27 -14 -40 -7 -16 -6 -28 2 -37 14 -17 49 -18
49 -1 0 7 9 18 20 25 32 20 25 46 -16 58 -30 10 -36 9 -41 -5z"/>
<path d="M9651 425 c-17 -19 -41 -35 -52 -35 -18 0 -37 -25 -27 -35 2 -2 36 6
74 18 l71 23 -17 32 -17 32 -32 -35z"/>
<path d="M7050 400 c-8 -5 -10 -10 -5 -10 6 0 17 5 25 10 8 5 11 10 5 10 -5 0
-17 -5 -25 -10z"/>
<path d="M6823 380 c-79 -23 -83 -26 -83 -57 0 -23 3 -25 28 -19 39 9 185 7
223 -4 40 -12 52 -5 38 22 -6 11 -8 30 -5 43 5 20 1 23 -41 29 -64 9 -89 6
-160 -14z"/>
<path d="M9460 382 c-57 -15 -65 -20 -68 -42 -4 -32 32 -58 54 -39 8 6 26 9
42 6 37 -7 58 11 64 56 5 43 5 43 -92 19z"/>
<path d="M6630 366 c-80 -22 -206 -74 -197 -82 2 -2 59 1 128 6 68 5 134 10
147 10 18 0 22 5 22 35 0 22 6 38 18 44 30 18 -25 12 -118 -13z"/>
<path d="M9265 366 c-94 -26 -200 -78 -172 -84 10 -2 26 -1 35 3 18 7 140 17
209 17 39 1 42 2 37 23 -3 13 -1 33 6 44 9 19 8 21 -12 20 -13 0 -59 -11 -103
-23z"/>
<path d="M9746 361 c-20 -22 -21 -50 -2 -57 12 -5 76 20 76 29 0 2 -13 13 -29
25 -28 20 -30 20 -45 3z"/>
<path d="M9660 360 c-30 -7 -130 -57 -130 -64 0 -2 41 -3 91 -2 l91 1 3 38 c2
40 1 40 -55 27z"/>
<path d="M6481 259 c-41 -5 -76 -11 -79 -14 -3 -3 58 -5 136 -5 120 0 142 2
142 15 0 17 -72 19 -199 4z"/>
</g>
</svg>
