<?xml version="1.0" standalone="no"?>
<!DOCTYPE svg PUBLIC "-//W3C//DTD SVG 20010904//EN"
 "http://www.w3.org/TR/2001/REC-SVG-20010904/DTD/svg10.dtd">
<svg version="1.0" xmlns="http://www.w3.org/2000/svg"
 width="2162.000000pt" height="506.000000pt" viewBox="0 0 2162.000000 506.000000"
 preserveAspectRatio="xMidYMid meet">

<g transform="translate(0.000000,506.000000) scale(0.100000,-0.100000)"
fill="#000000" stroke="none">
<path d="M2310 4860 c-19 -11 -53 -24 -75 -30 -72 -20 -95 -32 -95 -51 0 -24
36 -25 70 -3 l25 17 -20 -21 c-34 -34 -101 -33 -144 4 -24 20 -32 23 -36 12
-7 -18 48 -125 62 -121 6 2 8 -6 6 -20 -3 -14 2 -29 11 -36 13 -11 20 -11 40
3 20 12 27 13 33 3 15 -23 40 -37 56 -31 9 3 13 12 11 19 -3 7 6 25 20 40 15
16 25 30 23 31 -2 2 -21 8 -43 13 -36 8 -37 9 -9 10 17 1 41 -6 53 -15 12 -8
27 -12 32 -9 6 4 30 -5 55 -19 53 -31 64 -33 40 -6 -29 33 -76 57 -135 70 -30
7 -49 15 -43 17 25 9 123 -28 168 -63 26 -19 50 -33 53 -29 11 11 -13 39 -49
57 -20 11 -27 18 -16 18 24 0 22 49 -4 111 -24 55 -35 58 -89 29z"/>
<path d="M2045 4660 c-3 -5 1 -10 9 -10 9 0 16 5 16 10 0 6 -4 10 -9 10 -6 0
-13 -4 -16 -10z"/>
<path d="M4839 4455 c-19 -14 -48 -42 -65 -63 -18 -20 -37 -38 -43 -38 -6 -1
-15 -2 -21 -3 -5 0 -10 -8 -10 -16 0 -7 -6 -18 -13 -22 -20 -12 -47 -60 -47
-82 0 -11 12 -56 26 -101 19 -59 29 -78 36 -68 7 9 8 7 4 -7 -3 -11 3 -49 14
-85 11 -36 17 -49 14 -30 -3 19 -8 46 -10 60 l-4 25 10 -24 c10 -22 24 -80 70
-286 19 -86 88 -345 115 -435 66 -219 123 -505 124 -630 1 -45 -21 -125 -31
-115 -3 3 -15 -20 -27 -51 -31 -82 -28 -133 14 -215 39 -77 43 -104 18 -139
-16 -22 -16 -23 1 -17 10 4 22 7 27 7 5 0 10 15 10 33 l2 32 6 -34 c3 -19 13
-36 21 -38 13 -4 13 -3 0 6 -13 9 -13 11 3 11 10 0 20 7 23 15 4 8 16 15 28
14 20 0 20 -1 1 -9 -16 -6 -12 -9 20 -11 41 -4 41 -4 79 -84 10 -21 21 15 21
66 0 46 -3 55 -23 65 -31 15 -54 39 -30 31 9 -3 32 -9 51 -12 41 -8 47 4 47
108 0 50 -8 89 -31 155 -60 168 -77 244 -93 417 -18 193 -70 575 -96 710 -5
28 -21 120 -35 205 -15 85 -33 184 -40 220 -19 88 -44 230 -55 311 -12 85 -37
149 -59 149 -9 0 -33 -11 -52 -25z m410 -2378 c1 -5 -3 -5 -9 -2 -5 3 -10 16
-9 28 0 21 1 21 9 2 5 -11 9 -24 9 -28z"/>
<path d="M5810 4363 c-8 -3 -25 -17 -38 -32 -21 -23 -23 -33 -18 -96 3 -38 8
-103 11 -144 3 -41 9 -90 15 -109 5 -19 7 -38 5 -42 -3 -4 4 -79 15 -166 11
-87 20 -207 20 -267 0 -60 5 -117 11 -128 6 -13 7 -25 1 -32 -5 -7 -12 -151
-15 -322 -6 -307 -20 -541 -37 -642 -5 -31 -23 -73 -44 -105 -49 -73 -58 -166
-26 -250 26 -71 21 -100 -19 -92 -50 10 -59 -10 -60 -147 0 -67 -3 -124 -6
-127 -3 -3 -5 16 -5 43 0 65 -12 49 -21 -28 -4 -34 -11 -73 -14 -87 -5 -19 -3
-17 11 8 9 18 19 30 22 28 3 -3 -1 -13 -8 -21 -10 -12 -10 -21 -1 -42 11 -23
13 -24 29 -11 28 25 136 -7 187 -55 29 -28 45 -36 60 -32 11 4 41 9 68 12 26
3 47 6 47 7 0 0 -10 26 -21 56 -28 72 -37 207 -16 234 13 18 12 23 -4 53 -17
31 -18 33 -1 34 11 1 8 4 -8 9 -14 4 -20 8 -13 9 9 1 8 8 -3 29 -21 40 -17 71
13 111 42 54 44 145 7 250 l-28 79 12 144 c11 140 45 433 56 486 6 26 27 258
46 497 6 66 10 208 11 315 1 195 1 195 -31 285 -45 127 -44 124 -28 143 17 20
21 88 6 115 -7 14 -19 18 -52 16 -23 -2 -48 1 -55 5 -17 11 -63 16 -81 9z"/>
<path d="M1762 4193 c-11 -16 -20 -48 -21 -75 -1 -26 -8 -60 -16 -75 -8 -15
-15 -38 -15 -50 0 -13 -4 -23 -9 -23 -5 0 -12 -12 -16 -27 -6 -27 -76 -120
-102 -136 -20 -12 -16 -22 17 -34 17 -6 30 -18 30 -27 0 -44 37 -1 90 104 30
59 58 105 133 214 35 50 35 95 2 124 -13 12 -31 19 -40 16 -8 -4 -15 -1 -15 5
0 20 -18 12 -38 -16z"/>
<path d="M6325 4045 c-61 -17 -109 -65 -126 -127 -8 -31 -10 -105 -4 -268 19
-575 20 -689 8 -835 -7 -82 -12 -205 -13 -272 0 -67 -4 -123 -9 -125 -13 -4
-81 -156 -81 -179 0 -11 -4 -19 -8 -19 -18 0 -44 -80 -49 -150 -5 -77 7 -144
41 -222 10 -24 12 -38 6 -38 -6 0 -8 -4 -5 -10 8 -13 -1 -13 -27 1 -27 15 -45
-3 -24 -24 9 -9 16 -21 16 -27 0 -7 -9 -2 -19 11 l-19 24 5 -28 c3 -15 9 -30
14 -33 12 -7 11 -34 -1 -34 -5 0 -7 6 -4 14 7 19 -15 31 -29 16 -9 -9 -5 -17
18 -37 17 -14 22 -23 12 -19 -16 5 -16 3 -1 -32 9 -20 23 -62 32 -92 9 -34 28
-69 48 -90 19 -19 46 -50 62 -69 22 -26 31 -31 37 -21 5 9 4 11 -3 6 -8 -5
-10 2 -5 24 10 52 31 105 41 103 5 -1 7 8 5 20 -5 28 31 140 57 177 23 32 25
51 8 68 -16 16 4 16 21 0 11 -11 13 -10 9 2 -2 8 -23 19 -45 25 -25 6 -38 15
-36 23 3 6 9 9 15 6 5 -4 5 4 -2 16 -14 26 -9 84 19 230 11 58 30 173 41 255
11 83 27 188 35 235 9 47 24 144 36 215 11 72 29 184 40 250 10 66 28 208 38
315 11 107 25 240 30 295 6 55 12 150 13 211 l3 111 -32 27 c-18 15 -33 36
-33 46 0 10 -4 22 -10 25 -5 3 -10 1 -10 -6 0 -7 -8 -6 -25 5 -28 18 -25 18
-90 1z"/>
<path d="M4395 4017 c-33 -33 -33 -34 -33 -128 1 -92 33 -263 60 -313 10 -20
10 -20 -7 -6 -17 14 -18 13 -12 -3 12 -33 57 -189 97 -337 21 -80 50 -186 64
-237 39 -141 50 -250 36 -366 -7 -53 -16 -100 -21 -103 -15 -9 -10 -51 12
-119 26 -81 37 -91 83 -74 48 17 86 3 107 -38 9 -18 22 -40 29 -48 7 -8 10
-21 7 -28 -8 -20 19 -50 39 -43 15 6 16 8 0 24 -21 24 -20 33 5 81 17 33 19
50 14 98 -11 95 -12 96 -56 90 -44 -6 -47 0 -19 36 l20 26 -28 48 c-47 80 -72
155 -87 254 -24 168 -45 304 -50 319 -5 16 -33 194 -65 415 -19 134 -27 165
-40 165 -6 0 -12 41 -25 194 -11 118 -66 157 -130 93z m47 1 c-7 -7 -12 -8
-12 -2 0 6 3 14 7 17 3 4 9 5 12 2 2 -3 -1 -11 -7 -17z"/>
<path d="M9138 4036 c-51 -12 -118 -65 -118 -94 0 -14 -2 -15 -9 -3 -7 11 -12
4 -19 -25 -31 -125 -75 -281 -89 -314 -6 -14 -9 -30 -6 -36 2 -6 -3 -17 -12
-24 -8 -7 -15 -23 -15 -36 0 -13 -4 -24 -9 -24 -10 0 -75 -147 -77 -173 -1 -9
-9 -26 -18 -36 -9 -9 -16 -20 -16 -24 0 -4 -11 -30 -24 -59 -13 -29 -36 -82
-51 -118 -15 -36 -34 -83 -43 -105 -9 -22 -74 -152 -143 -290 -334 -663 -417
-814 -453 -828 -9 -4 -23 -22 -33 -40 -10 -19 -49 -70 -87 -113 -81 -93 -116
-161 -116 -225 0 -46 16 -109 28 -109 4 0 17 18 30 40 34 60 97 92 192 98 l77
4 28 67 c69 162 288 587 406 786 26 44 66 116 89 160 23 44 59 109 80 145 118
206 276 517 316 623 44 115 120 346 129 389 4 18 14 53 22 78 8 25 17 101 20
169 5 111 4 124 -10 118 -9 -3 -17 -2 -19 2 -2 4 -24 3 -50 -3z"/>
<path d="M1065 3831 c-11 -5 -23 -7 -26 -5 -12 7 -113 -125 -103 -135 3 -3 16
8 30 24 l25 30 -25 -40 c-14 -22 -26 -45 -26 -52 0 -14 -28 -43 -41 -43 -6 0
-3 7 5 16 9 8 16 20 16 25 0 18 -16 9 -38 -21 -22 -29 -22 -30 -3 -30 16 0 19
-5 15 -27 -6 -34 -17 -46 -44 -48 -18 -2 -19 0 -4 16 8 9 12 19 7 22 -4 3 -16
-6 -26 -19 -17 -22 -17 -24 3 -34 24 -13 26 -33 5 -50 -8 -7 -13 -16 -10 -20
3 -5 -5 -10 -17 -12 -13 -2 -22 -9 -20 -17 2 -7 -5 -22 -14 -32 -12 -14 -14
-19 -4 -19 7 0 10 -3 6 -7 -4 -4 -16 3 -25 16 l-19 24 -11 -21 c-8 -14 -8 -22
-1 -22 14 0 13 -37 -1 -46 -6 -3 -15 -1 -19 6 -5 9 -9 9 -14 1 -4 -6 -2 -11 4
-11 19 0 6 -45 -14 -48 -11 -3 -16 0 -12 7 4 6 5 11 2 11 -3 0 -10 -10 -17
-21 -8 -15 -8 -19 0 -15 6 4 11 3 11 -3 0 -6 -11 -13 -25 -17 -14 -3 -25 -12
-25 -20 0 -8 -5 -14 -10 -14 -17 0 -62 -49 -55 -59 3 -5 0 -13 -6 -17 -8 -4
-9 -3 -5 4 4 7 2 12 -3 13 -53 4 -83 0 -105 -14 -14 -9 -30 -17 -36 -17 -17 0
-63 -58 -80 -100 -8 -21 -22 -45 -30 -55 -20 -24 -14 -74 13 -96 12 -10 42
-28 65 -39 42 -20 45 -20 89 -4 64 25 130 89 211 206 131 189 318 358 510 460
42 23 80 46 83 50 7 11 127 68 152 74 11 2 57 23 103 46 83 42 102 66 71 85
-8 4 -16 16 -20 26 -3 9 -16 17 -27 17 -12 0 -32 11 -46 25 -14 14 -31 25 -39
25 -8 0 -15 7 -15 16 0 11 -6 15 -17 11 -10 -3 -43 -13 -73 -23 -33 -10 -81
-16 -119 -15 -65 2 -101 -14 -101 -46 0 -8 -6 -13 -12 -10 -9 2 -12 21 -11 51
2 48 1 50 -32 37z m-35 -32 c-7 -11 -14 -18 -17 -15 -3 3 0 12 7 21 18 21 23
19 10 -6z m-633 -734 c0 -8 -4 -12 -9 -9 -4 3 -8 9 -8 15 0 5 4 9 8 9 5 0 9
-7 9 -15z m-106 -188 c-10 -9 -11 -8 -5 6 3 10 9 15 12 12 3 -3 0 -11 -7 -18z"/>
<path d="M7197 3822 c-19 -21 -23 -92 -12 -244 11 -159 -19 -582 -59 -823 -8
-49 -24 -144 -35 -210 -11 -66 -27 -163 -36 -215 -18 -109 -37 -194 -68 -298
-20 -69 -22 -72 -47 -67 -31 6 -43 -1 -62 -40 -39 -75 -85 -337 -57 -319 8 5
9 3 5 -5 -5 -7 -11 -10 -14 -7 -3 3 -11 1 -19 -5 -9 -8 -17 -8 -25 -1 -7 6
-30 13 -50 17 -34 6 -38 5 -38 -13 0 -11 13 -30 29 -41 36 -26 48 -61 21 -61
-60 0 -105 -57 -130 -165 -10 -41 -13 -72 -9 -69 5 3 9 14 9 24 0 10 5 22 10
25 7 4 9 -2 5 -18 -6 -24 -5 -25 43 -25 27 0 67 -3 90 -7 35 -6 43 -11 48 -33
9 -38 52 -92 68 -86 23 9 75 126 83 189 l7 60 7 -40 6 -40 2 41 c0 22 -4 45
-10 51 -20 20 -2 43 33 43 44 0 59 11 67 51 6 27 3 38 -12 52 -11 9 -24 17
-29 17 -17 0 -7 52 21 103 28 49 57 154 47 165 -3 2 -8 -14 -12 -37 -4 -22
-10 -41 -15 -41 -12 0 -11 2 5 52 8 24 16 54 19 68 4 23 4 23 6 -5 5 -62 20 8
21 95 0 47 5 101 10 120 5 19 27 105 49 190 22 85 59 223 81 305 23 83 57 213
76 290 18 77 46 185 60 240 35 131 44 334 19 437 -9 37 -14 72 -9 79 4 8 3 9
-5 5 -9 -6 -10 0 -5 20 5 19 4 25 -4 20 -8 -5 -10 -2 -6 8 3 9 1 16 -6 16 -6
0 -8 5 -5 10 3 6 1 10 -5 10 -6 0 -17 15 -25 33 -14 34 -46 67 -82 86 -29 15
-37 14 -56 -7z m-289 -1892 c-14 -22 -24 -19 -15 5 4 8 11 15 17 15 6 0 6 -7
-2 -20z m-24 -65 c-4 -8 -8 -15 -10 -15 -2 0 -4 7 -4 15 0 8 4 15 10 15 5 0 7
-7 4 -15z m-22 -57 c-8 -8 -9 -4 -5 13 4 13 8 18 11 10 2 -7 -1 -18 -6 -23z
m177 -132 c-7 -14 -16 -26 -20 -26 -5 0 0 13 9 29 20 36 27 34 11 -3z m-37
-76 c-2 -22 -7 -42 -11 -44 -8 -6 -5 60 4 74 10 16 11 12 7 -30z"/>
<path d="M4089 3654 c-14 -7 -34 -31 -44 -53 -15 -35 -16 -46 -5 -93 12 -51
50 -161 70 -203 20 -43 90 -220 90 -228 0 -5 6 -23 14 -40 40 -89 86 -309 93
-449 l5 -97 -26 -7 c-32 -8 -33 -28 -3 -68 14 -18 27 -53 31 -82 6 -48 5 -52
-16 -58 -13 -3 -33 -6 -45 -6 -33 0 -31 -36 2 -42 13 -3 27 0 29 6 3 6 5 4 5
-4 -3 -46 2 -81 11 -75 16 10 12 -25 -5 -41 -21 -22 -19 -40 3 -22 9 9 36 25
60 37 23 12 42 26 42 31 0 6 5 10 10 10 19 0 71 44 85 71 38 73 25 243 -25
322 -54 86 -136 356 -191 632 -17 88 -42 187 -55 219 -13 33 -24 64 -24 69 0
5 -8 16 -17 23 -16 12 -16 15 -3 23 12 8 12 13 2 23 -6 6 -12 26 -12 43 0 29
-31 76 -48 74 -4 -1 -19 -7 -33 -15z m2 -227 c10 -38 14 -66 10 -61 -7 8 -33
89 -47 149 -5 19 -5 19 7 1 6 -11 20 -51 30 -89z"/>
<path d="M771 3454 c-7 -17 -17 -24 -26 -20 -20 7 -19 -18 0 -34 14 -12 16 -9
15 15 -1 3 6 13 15 21 8 9 15 22 15 30 0 21 -5 17 -19 -12z"/>
<path d="M367 3152 c10 -23 23 -42 30 -42 25 0 21 18 -13 51 l-34 33 17 -42z"/>
<path d="M3270 3143 c-24 -9 -51 -22 -58 -30 -7 -7 -18 -13 -23 -13 -5 0 -9
-7 -9 -16 0 -12 -7 -14 -29 -9 -19 4 -34 1 -44 -9 -21 -22 -53 -20 -77 4 -11
11 -26 20 -32 20 -7 0 -21 7 -32 15 -16 12 -22 12 -42 -2 -13 -8 -30 -13 -38
-10 -9 4 -16 -3 -20 -18 -3 -13 -15 -27 -26 -30 -13 -4 -20 -15 -20 -30 0 -43
10 -55 47 -55 39 0 73 -15 73 -32 0 -6 -8 -4 -18 5 -24 22 -33 21 -26 0 5 -16
4 -16 -9 0 -10 12 -25 17 -42 15 -25 -3 -27 -7 -29 -55 -4 -67 10 -81 55 -59
40 20 50 20 24 0 -12 -10 -14 -15 -5 -12 8 2 23 21 33 41 9 20 23 37 30 38 6
0 22 2 34 5 26 4 58 -25 79 -71 l13 -30 1 27 c0 18 -12 39 -35 62 -34 34 -48
58 -22 39 6 -5 22 -10 35 -11 21 -1 22 1 10 16 -7 9 2 4 21 -11 l34 -28 21 24
c26 32 71 54 135 68 35 7 54 18 66 36 10 14 12 22 5 18 -9 -5 -11 0 -6 21 7
32 -5 86 -20 90 -5 1 -29 -5 -54 -13z"/>
<path d="M2730 3118 c-65 -23 -62 -21 -54 -41 5 -13 10 -14 25 -6 11 5 23 7
28 5 5 -3 11 0 14 8 3 7 21 15 41 18 19 2 32 0 30 -4 -3 -4 -14 -8 -24 -8 -10
0 -34 -13 -52 -30 -30 -27 -31 -30 -11 -30 12 0 33 11 47 25 14 14 33 25 43
25 13 -1 10 -5 -11 -16 -21 -12 -25 -18 -16 -24 8 -5 24 0 42 13 l28 21 -32
33 c-18 18 -34 33 -37 32 -4 0 -31 -10 -61 -21z"/>
<path d="M2699 3053 c-13 -17 -13 -17 6 -3 11 8 22 16 24 17 2 2 0 3 -6 3 -6
0 -17 -8 -24 -17z"/>
<path d="M2762 2915 c-30 -16 -47 -41 -60 -88 l-10 -37 31 0 c18 0 49 5 70 11
32 9 36 12 23 24 -19 19 -39 82 -31 95 7 12 7 12 -23 -5z"/>
<path d="M2797 2913 c-3 -5 -1 -17 4 -28 7 -17 8 -17 8 8 1 27 -4 34 -12 20z"/>
<path d="M3075 2883 c15 -23 25 -49 21 -58 -3 -9 0 -15 9 -15 27 0 16 39 -21
78 l-35 37 26 -42z"/>
<path d="M3103 2889 c14 -19 27 -46 30 -60 4 -23 4 -23 6 3 1 19 -9 39 -30 60
l-32 33 26 -36z"/>
<path d="M2840 2805 c-14 -8 -20 -14 -14 -15 5 0 19 7 30 15 24 18 16 19 -16
0z"/>
<path d="M2788 2783 c7 -3 16 -2 19 1 4 3 -2 6 -13 5 -11 0 -14 -3 -6 -6z"/>
<path d="M2708 2773 c12 -2 32 -2 45 0 12 2 2 4 -23 4 -25 0 -35 -2 -22 -4z"/>
<path d="M4814 2110 c2 -41 14 -89 31 -130 103 -249 170 -561 182 -837 l6
-153 25 0 24 0 -7 118 c-17 310 -40 450 -116 717 -33 115 -78 226 -123 306
l-25 44 3 -65z"/>
<path d="M4845 2150 c3 -5 12 -7 20 -3 9 3 23 -1 33 -8 15 -13 16 -12 3 4 -14
17 -67 25 -56 7z"/>
<path d="M4860 2133 c0 -5 4 -14 9 -21 7 -11 9 -11 14 1 3 8 3 18 0 21 -9 8
-23 7 -23 -1z"/>
<path d="M4901 2106 c-16 -19 -9 -31 40 -62 46 -29 68 -24 45 12 -21 31 -20
34 12 35 56 1 67 16 12 16 -30 -1 -64 3 -76 7 -14 5 -25 2 -33 -8z m70 -57
c13 -11 18 -18 11 -14 -57 29 -65 35 -51 35 9 0 27 -9 40 -21z"/>
<path d="M5016 2081 l-38 -6 21 -19 c22 -20 22 -20 49 7 14 15 22 26 17 26 -6
-1 -27 -5 -49 -8z"/>
<path d="M5265 2010 c3 -5 15 -10 26 -10 11 0 17 5 14 10 -3 6 -15 10 -26 10
-11 0 -17 -4 -14 -10z"/>
<path d="M5117 2003 c-15 -4 -16 -6 -2 -26 8 -12 15 -31 15 -42 -1 -14 -5 -11
-15 14 -13 29 -17 32 -31 20 -8 -7 -13 -21 -11 -31 6 -21 -8 -25 -16 -4 -3 8
4 27 15 42 l21 27 -21 -12 c-13 -7 -28 -20 -34 -30 -6 -11 -18 -17 -25 -14 -7
3 -13 1 -13 -5 0 -9 19 -21 30 -18 3 0 17 -7 31 -16 15 -9 42 -20 63 -23 32
-7 36 -5 36 14 0 12 -7 38 -15 58 -8 20 -13 38 -11 40 8 8 27 -37 34 -80 6
-36 11 -42 35 -45 32 -4 35 11 8 35 -11 9 -17 21 -14 26 3 6 1 7 -4 4 -6 -4
-18 10 -27 33 -9 22 -19 39 -23 39 -5 -1 -16 -3 -26 -6z"/>
<path d="M4587 1883 c-11 -3 -16 -11 -13 -19 10 -26 55 -216 75 -318 11 -54
22 -100 24 -102 2 -3 12 -2 21 2 18 7 19 29 7 89 -5 22 -16 78 -26 125 -9 47
-20 99 -26 115 -5 17 -14 49 -19 73 -6 23 -14 41 -18 41 -4 -1 -15 -3 -25 -6z"/>
<path d="M5975 1850 c-4 -6 1 -22 10 -36 16 -24 18 -25 35 -9 10 9 25 14 32
10 7 -4 0 5 -15 19 -30 27 -52 33 -62 16z"/>
<path d="M6231 1473 c-1 -6 -4 -20 -7 -30 -5 -17 -5 -17 6 0 6 10 9 23 6 30
-3 9 -5 9 -5 0z"/>
<path d="M6211 1404 c0 -11 3 -14 6 -6 3 7 2 16 -1 19 -3 4 -6 -2 -5 -13z"/>
<path d="M7602 1323 c-9 -10 -30 -26 -46 -36 -43 -29 -18 -46 27 -18 49 30 62
27 95 -21 59 -87 92 -240 92 -424 0 -80 3 -105 11 -97 8 8 10 59 6 170 -6 179
-23 252 -83 362 -48 87 -66 98 -102 64z"/>
<path d="M7775 1289 c-4 -5 3 -21 14 -35 l21 -27 0 31 c0 30 -23 51 -35 31z"/>
<path d="M6951 1274 c0 -11 3 -14 6 -6 3 7 2 16 -1 19 -3 4 -6 -2 -5 -13z"/>
<path d="M6936 1234 c-4 -9 -4 -19 -1 -22 2 -3 7 3 11 12 4 9 4 19 1 22 -2 3
-7 -3 -11 -12z"/>
<path d="M6900 1165 c-7 -9 -10 -18 -7 -21 3 -3 10 4 17 15 13 25 8 27 -10 6z"/>
<path d="M7355 1156 c-2 -12 -9 -48 -16 -81 -6 -33 -13 -66 -16 -75 -2 -8 3
-4 12 10 14 22 16 22 12 4 -4 -19 3 -21 82 -33 91 -13 121 -29 121 -67 0 -27
25 -54 49 -54 25 0 68 36 86 71 9 16 13 29 10 29 -3 0 4 19 16 41 42 84 9 128
-108 144 -26 4 -63 13 -80 21 -20 9 -58 14 -98 13 -58 -2 -66 -4 -70 -23z"/>
<path d="M7795 1140 c-8 -13 -1 -24 14 -19 6 3 7 10 2 18 -6 10 -10 10 -16 1z"/>
<path d="M7798 1065 c-3 -3 -1 -26 3 -53 4 -26 8 -71 8 -99 l1 -53 46 0 c41 0
51 -5 92 -46 39 -37 51 -44 72 -39 14 4 39 9 57 12 37 6 47 26 38 76 l-7 34
-51 -15 c-37 -11 -52 -12 -55 -3 -2 6 -13 11 -24 11 -27 0 -102 76 -121 122
-14 33 -48 64 -59 53z"/>
<path d="M7737 970 c-4 -14 -6 -36 -6 -50 1 -18 4 -14 10 14 10 44 6 75 -4 36z"/>
<path d="M7739 868 c0 -22 -1 -22 -9 -3 -8 18 -9 17 -9 -7 -1 -19 4 -28 14
-28 10 0 15 10 15 30 0 35 -10 41 -11 8z"/>
<path d="M19136 865 c-11 -8 -40 -15 -64 -15 -34 0 -48 -5 -63 -24 -12 -15
-34 -26 -60 -30 -23 -4 -39 -9 -36 -12 3 -3 56 -10 119 -14 384 -30 625 -114
780 -273 l41 -42 -24 40 c-35 61 -95 140 -131 174 -40 38 -190 118 -278 149
-48 17 -252 64 -264 62 0 0 -10 -7 -20 -15z"/>
<path d="M8141 834 c0 -11 3 -14 6 -6 3 7 2 16 -1 19 -3 4 -6 -2 -5 -13z"/>
<path d="M8381 795 c-90 -56 -92 -68 -8 -79 44 -5 47 -4 47 17 0 29 10 43 38
52 22 6 23 8 6 26 -21 24 -18 24 -83 -16z"/>
</g>
</svg>
